<svg width="100" height="408" viewBox="0 0 100 408" fill="none" xmlns="http://www.w3.org/2000/svg">
<g clip-path="url(#clip0_536_165)">
<path opacity="0.3" d="M76.579 187C76.579 210.804 62.2954 233.57 36.2801 254.353C10.2733 275.129 -27.3896 293.857 -73.9627 309.593C-167.11 341.064 -295.816 360.536 -438 360.536C-580.184 360.536 -708.89 341.064 -802.036 309.593C-848.612 293.857 -886.274 275.129 -912.282 254.353C-938.299 233.57 -952.579 210.804 -952.579 187C-952.579 163.196 -938.299 140.43 -912.282 119.647C-886.274 98.8719 -848.612 80.1435 -802.036 64.4071C-708.89 32.9362 -580.184 13.4641 -438 13.4641C-295.816 13.4641 -167.11 32.9362 -73.9627 64.4071C-27.3896 80.1435 10.2733 98.8719 36.2801 119.647C62.2954 140.43 76.579 163.196 76.579 187Z" stroke="#FAF9F6"/>
</g>
<g clip-path="url(#clip1_536_165)">
<path opacity="0.3" d="M98.7916 253.792C97.4141 277.423 81.8224 298.154 54.6108 315.378C27.4076 332.596 -11.3226 346.253 -58.7908 355.773C-153.717 374.809 -283.495 377.272 -425.615 358.637C-567.734 340.002 -695.255 303.8 -786.536 260.346C-832.179 238.619 -868.738 215.089 -893.531 191.053C-918.332 167.01 -931.286 142.536 -929.906 118.905C-928.527 95.2736 -912.935 74.5428 -885.724 57.3191C-858.524 40.1018 -819.794 26.4438 -772.327 16.9251C-677.398 -2.11152 -547.62 -4.57476 -405.5 14.0606C-263.38 32.6959 -135.86 68.8973 -44.5765 112.35C1.06637 134.078 37.6246 157.609 62.4193 181.643C87.214 205.687 100.169 230.161 98.7916 253.792Z" stroke="#FAF9F6"/>
</g>
<defs>
<clipPath id="clip0_536_165">
<rect width="1030" height="348" fill="white" transform="translate(-953 13)"/>
</clipPath>
<clipPath id="clip1_536_165">
<rect width="1031" height="372" fill="white" transform="translate(-931)"/>
</clipPath>
</defs>
</svg>
