<svg width="56" height="56" viewBox="0 0 56 56" fill="none" xmlns="http://www.w3.org/2000/svg">
<rect width="56" height="56" rx="10" fill="#DAFFFB"/>
<g clip-path="url(#clip0_114_1251)">
<path d="M47.375 37.86V33.1394L45.0444 32.5425C44.8619 31.9519 44.6263 31.3812 44.3413 30.8394L45.5662 28.7712L42.2287 25.4331L40.16 26.6587C39.6188 26.3731 39.0481 26.1375 38.4575 25.955L37.86 23.625H33.1394L32.5425 25.9556C31.9519 26.1381 31.3812 26.3737 30.84 26.6593L28.7713 25.4337L28.625 25.5812V23.625H26.75C26.2231 23.625 25.7169 23.4012 25.3619 23.0106C25.0019 22.615 24.8325 22.1018 24.8838 21.5643C24.9744 20.6175 25.8413 19.875 26.8575 19.875H28.625V14.25C28.625 13.2162 27.7838 12.375 26.75 12.375H21.75V11.8575C21.75 10.2037 20.5113 8.7906 18.93 8.63997C18.05 8.55372 17.1731 8.84622 16.5231 9.43747C15.8731 10.0281 15.5 10.8718 15.5 11.75V12.375H10.5C9.46625 12.375 8.625 13.2162 8.625 14.25V19.875H10.3925C11.4088 19.875 12.2756 20.6175 12.3663 21.5637C12.4175 22.1012 12.2481 22.615 11.8881 23.01C11.5331 23.4012 11.0269 23.625 10.5 23.625H8.625V29.25C8.625 30.2837 9.46625 31.125 10.5 31.125H16.75V29.3575C16.75 28.3412 17.4919 27.4737 18.4387 27.3837C18.9775 27.3381 19.4906 27.5025 19.8856 27.8625C20.2762 28.2169 20.5 28.7225 20.5 29.25V31.125H26.5256C26.3031 31.5819 26.1069 32.0531 25.9556 32.5431L23.625 33.14V37.8606L25.9556 38.4575C26.1381 39.0481 26.3738 39.6187 26.6588 40.1606L25.4338 42.2287L28.7713 45.5669L30.84 44.3412C31.3812 44.6269 31.9519 44.8625 32.5425 45.045L33.14 47.375H37.8606L38.4575 45.0444C39.0481 44.8619 39.6188 44.6262 40.16 44.3406L42.2287 45.5662L45.5662 42.2281L44.3413 40.16C44.6269 39.6187 44.8619 39.0481 45.0444 38.4569L47.375 37.86ZM20.7269 26.9375C20.0769 26.3462 19.1981 26.0518 18.32 26.14C16.7387 26.2906 15.5 27.7037 15.5 29.3575V29.875H10.5C10.1556 29.875 9.875 29.595 9.875 29.25V24.875H10.5C11.3788 24.875 12.2213 24.5018 12.8131 23.8512C13.4037 23.2012 13.695 22.3243 13.6106 21.445C13.4594 19.8637 12.0462 18.625 10.3925 18.625H9.875V14.25C9.875 13.905 10.1556 13.625 10.5 13.625H16.75V11.75C16.75 11.2225 16.9738 10.7168 17.3644 10.3618C17.76 10.0025 18.2719 9.8356 18.8113 9.8831C19.7581 9.97372 20.5 10.8412 20.5 11.8575V13.625H26.75C27.0944 13.625 27.375 13.905 27.375 14.25V18.625H26.8575C25.2038 18.625 23.7906 19.8637 23.6394 21.4456C23.5556 22.3243 23.8462 23.2018 24.4369 23.8519C25.0287 24.5019 25.8713 24.875 26.75 24.875H27.375V26.8312L25.4344 28.7719L26.0875 29.875H21.75V29.25C21.75 28.3719 21.3769 27.5281 20.7269 26.9375ZM44.0344 37.425L43.9394 37.7775C43.7419 38.5112 43.4525 39.2112 43.0794 39.8581L42.8969 40.175L43.9956 42.03L42.03 43.9962L40.175 42.8969L39.8587 43.0794C39.2113 43.4525 38.5106 43.7419 37.7769 43.9394L37.4244 44.0344L36.89 46.125H34.1106L33.5756 44.0344L33.2231 43.9394C32.4894 43.7419 31.7894 43.4525 31.1413 43.0794L30.825 42.8969L28.97 43.9962L27.0044 42.03L28.1031 40.175L27.9206 39.8581C27.5475 39.2112 27.2581 38.5112 27.0606 37.7775L26.9656 37.425L24.875 36.89V34.1106L26.9656 33.5756L27.0606 33.2231C27.2581 32.4894 27.5475 31.7894 27.9206 31.1425L28.1031 30.8256L27.0044 28.9706L28.97 27.0043L30.825 28.1037L31.1413 27.9212C31.7887 27.5481 32.4894 27.2587 33.2231 27.0612L33.5756 26.9662L34.11 24.875H36.8894L37.4244 26.9656L37.7769 27.0606C38.5106 27.2581 39.2106 27.5475 39.8587 27.9206L40.175 28.1031L42.03 27.0037L43.9956 28.97L42.8969 30.825L43.0794 31.1419C43.4525 31.7887 43.7419 32.4887 43.9394 33.2225L44.0344 33.575L46.125 34.11V36.8894L44.0344 37.425Z" fill="#4DC0B3"/>
<path d="M35.5 30.5C32.7431 30.5 30.5 32.7431 30.5 35.5C30.5 38.2569 32.7431 40.5 35.5 40.5C36.5875 40.5 37.625 40.1519 38.5 39.4937L37.7487 38.495C37.0919 38.9887 36.3144 39.25 35.5 39.25C33.4319 39.25 31.75 37.5681 31.75 35.5C31.75 33.4319 33.4319 31.75 35.5 31.75C37.5681 31.75 39.25 33.4319 39.25 35.5C39.25 36.3144 38.9894 37.0919 38.495 37.7494L39.4944 38.5C40.1519 37.6244 40.5 36.5875 40.5 35.5C40.5 32.7431 38.2569 30.5 35.5 30.5Z" fill="#4DC0B3"/>
<path d="M35.5 28C31.3644 28 28 31.3644 28 35.5C28 39.6356 31.3644 43 35.5 43C39.6356 43 43 39.6356 43 35.5C43 31.3644 39.6356 28 35.5 28ZM35.5 41.75C32.0538 41.75 29.25 38.9462 29.25 35.5C29.25 32.0538 32.0538 29.25 35.5 29.25C38.9462 29.25 41.75 32.0538 41.75 35.5C41.75 38.9462 38.9462 41.75 35.5 41.75Z" fill="#4DC0B3"/>
<path d="M41.75 12.375H40.5V13.625H41.75V12.375Z" fill="#4DC0B3"/>
<path d="M41.75 14.875H40.5V16.125H41.75V14.875Z" fill="#4DC0B3"/>
<path d="M43 13.625H41.75V14.875H43V13.625Z" fill="#4DC0B3"/>
<path d="M40.5 13.625H39.25V14.875H40.5V13.625Z" fill="#4DC0B3"/>
<path d="M35.5 17.375H34.25V18.625H35.5V17.375Z" fill="#4DC0B3"/>
<path d="M35.5 19.875H34.25V21.125H35.5V19.875Z" fill="#4DC0B3"/>
<path d="M36.75 18.625H35.5V19.875H36.75V18.625Z" fill="#4DC0B3"/>
<path d="M34.25 18.625H33V19.875H34.25V18.625Z" fill="#4DC0B3"/>
<path d="M44.25 19.875H43V21.125H44.25V19.875Z" fill="#4DC0B3"/>
<path d="M44.25 22.375H43V23.625H44.25V22.375Z" fill="#4DC0B3"/>
<path d="M45.5 21.125H44.25V22.375H45.5V21.125Z" fill="#4DC0B3"/>
<path d="M43 21.125H41.75V22.375H43V21.125Z" fill="#4DC0B3"/>
<path d="M32.375 9.875H31.125V11.125H32.375V9.875Z" fill="#4DC0B3"/>
<path d="M32.375 12.375H31.125V13.625H32.375V12.375Z" fill="#4DC0B3"/>
<path d="M33.625 11.125H32.375V12.375H33.625V11.125Z" fill="#4DC0B3"/>
<path d="M31.125 11.125H29.875V12.375H31.125V11.125Z" fill="#4DC0B3"/>
<path d="M20.5 37.375H19.25V38.625H20.5V37.375Z" fill="#4DC0B3"/>
<path d="M20.5 39.875H19.25V41.125H20.5V39.875Z" fill="#4DC0B3"/>
<path d="M21.75 38.625H20.5V39.875H21.75V38.625Z" fill="#4DC0B3"/>
<path d="M19.25 38.625H18V39.875H19.25V38.625Z" fill="#4DC0B3"/>
<path d="M14.25 33.625H13V34.875H14.25V33.625Z" fill="#4DC0B3"/>
<path d="M14.25 36.125H13V37.375H14.25V36.125Z" fill="#4DC0B3"/>
<path d="M15.5 34.875H14.25V36.125H15.5V34.875Z" fill="#4DC0B3"/>
<path d="M13 34.875H11.75V36.125H13V34.875Z" fill="#4DC0B3"/>
</g>
<defs>
<clipPath id="clip0_114_1251">
<rect width="40" height="40" fill="white" transform="translate(8 8)"/>
</clipPath>
</defs>
</svg>
