<svg width="56" height="56" viewBox="0 0 56 56" fill="none" xmlns="http://www.w3.org/2000/svg">
<rect width="56" height="56" rx="10" fill="#FFCED7"/>
<path d="M27.9999 14.2609C23.9032 14.2609 19.8063 15.822 16.6838 18.9447C10.4387 25.1897 10.4387 35.3319 16.6838 41.5771C16.8991 41.7928 17.2487 41.7931 17.4643 41.5777C17.68 41.3624 17.6803 41.0129 17.465 40.7972C17.4648 40.797 17.4645 40.7968 17.4643 40.7965C11.641 34.9732 11.641 25.5486 17.4643 19.7253C23.2877 13.9019 32.7122 13.9019 38.5356 19.7253C44.3589 25.5486 44.3589 34.9732 38.5356 40.7965C38.3198 41.0119 38.3194 41.3613 38.5347 41.5771C38.75 41.7928 39.0994 41.7933 39.3152 41.5779C39.3155 41.5776 39.3158 41.5774 39.3161 41.5771C45.5612 35.332 45.5612 25.1898 39.3161 18.9447C36.1937 15.822 32.0968 14.2609 27.9999 14.2609ZM27.9999 15.9509C24.3991 15.9509 20.7961 17.3259 18.0496 20.0725C12.5565 25.5656 12.5565 34.4801 18.0496 39.9732C18.1551 40.0831 18.3298 40.0867 18.4398 39.9811C18.5497 39.8756 18.5532 39.7009 18.4477 39.591C18.4452 39.5883 18.4425 39.5857 18.4398 39.583C13.1575 34.3007 13.1575 25.7451 18.4398 20.4629C21.0809 17.8218 24.5395 16.5028 27.9999 16.5028C28.1524 16.505 28.2776 16.3831 28.2797 16.2307C28.2818 16.0783 28.1601 15.953 28.0077 15.9509C28.0052 15.9508 28.0026 15.9508 27.9999 15.9509ZM36.8187 20.8741C36.6753 20.8784 36.5392 20.9384 36.4392 21.0412L29.5191 27.9614C29.0825 27.6715 28.5603 27.5016 27.9999 27.5016C26.4826 27.5016 25.2407 28.7435 25.2407 30.2608C25.2407 31.7781 26.4826 33.02 27.9999 33.02C29.5173 33.02 30.7591 31.7781 30.7591 30.2608C30.7591 29.7006 30.5893 29.1782 30.2994 28.7417L37.2195 21.8215C37.5806 21.4707 37.3218 20.8593 36.8187 20.8741ZM27.9999 28.6053C28.9207 28.6053 29.6555 29.34 29.6555 30.2608C29.6555 31.1816 28.9207 31.9163 27.9999 31.9163C27.0791 31.9163 26.3444 31.1816 26.3444 30.2608C26.3444 29.34 27.0791 28.6053 27.9999 28.6053ZM27.9999 28.8812C27.2413 28.8812 26.6203 29.5021 26.6203 30.2608C26.6181 30.4132 26.74 30.5385 26.8924 30.5406C27.0448 30.5428 27.1701 30.421 27.1722 30.2685C27.1722 30.2659 27.1722 30.2633 27.1722 30.2607C27.1722 29.8002 27.5395 29.4329 27.9999 29.4329C28.1524 29.4351 28.2776 29.3133 28.2797 29.1609C28.2819 29.0085 28.1601 28.8832 28.0077 28.8811C28.0052 28.8811 28.0026 28.8811 27.9999 28.8812Z" fill="#EF4768"/>
</svg>
