<svg width="1067" height="408" viewBox="0 0 1067 408" fill="none" xmlns="http://www.w3.org/2000/svg">
<g clip-path="url(#clip0_479_433)">
<path opacity="0.3" d="M1043.58 187C1043.58 210.804 1029.3 233.57 1003.28 254.353C977.273 275.129 939.61 293.857 893.037 309.593C799.89 341.064 671.184 360.536 529 360.536C386.816 360.536 258.11 341.064 164.964 309.593C118.388 293.857 80.7263 275.129 54.7184 254.353C28.701 233.57 14.4211 210.804 14.4211 187C14.4211 163.196 28.701 140.43 54.7184 119.647C80.7263 98.8719 118.388 80.1435 164.964 64.4071C258.11 32.9362 386.816 13.4641 529 13.4641C671.184 13.4641 799.89 32.9362 893.037 64.4071C939.61 80.1435 977.273 98.8719 1003.28 119.647C1029.3 140.43 1043.58 163.196 1043.58 187Z" stroke="#FAF9F6"/>
</g>
<g clip-path="url(#clip1_479_433)">
<path opacity="0.3" d="M1065.79 253.792C1064.41 277.423 1048.82 298.154 1021.61 315.378C994.408 332.596 955.677 346.253 908.209 355.773C813.283 374.809 683.505 377.272 541.385 358.637C399.266 340.002 271.745 303.8 180.464 260.346C134.821 238.619 98.2617 215.089 73.4693 191.053C48.6676 167.01 35.7143 142.536 37.0937 118.905C38.4732 95.2736 54.0652 74.5428 81.276 57.3191C108.476 40.1018 147.206 26.4438 194.673 16.9251C289.602 -2.11152 419.38 -4.57476 561.5 14.0606C703.62 32.6959 831.14 68.8973 922.423 112.35C968.066 134.078 1004.62 157.609 1029.42 181.643C1054.21 205.687 1067.17 230.161 1065.79 253.792Z" stroke="#FAF9F6"/>
</g>
<g clip-path="url(#clip2_479_433)">
<path d="M870.5 362.5C870.5 337.647 890.647 317.5 915.5 317.5C940.353 317.5 960.5 337.647 960.5 362.5C960.5 387.353 940.353 407.5 915.5 407.5C890.647 407.5 870.5 387.353 870.5 362.5Z" fill="#111111" stroke="#EF4768"/>
<path d="M889.541 353.469H890.637L893.432 360.424L896.221 353.469H897.322L893.854 362H892.998L889.541 353.469ZM889.184 353.469H890.15L890.309 358.672V362H889.184V353.469ZM896.707 353.469H897.674V362H896.549V358.672L896.707 353.469ZM903.234 360.916V357.652C903.234 357.402 903.184 357.186 903.082 357.002C902.984 356.814 902.836 356.67 902.637 356.568C902.438 356.467 902.191 356.416 901.898 356.416C901.625 356.416 901.385 356.463 901.178 356.557C900.975 356.65 900.814 356.773 900.697 356.926C900.584 357.078 900.527 357.242 900.527 357.418H899.443C899.443 357.191 899.502 356.967 899.619 356.744C899.736 356.521 899.904 356.32 900.123 356.141C900.346 355.957 900.611 355.812 900.92 355.707C901.232 355.598 901.58 355.543 901.963 355.543C902.424 355.543 902.83 355.621 903.182 355.777C903.537 355.934 903.814 356.17 904.014 356.486C904.217 356.799 904.318 357.191 904.318 357.664V360.617C904.318 360.828 904.336 361.053 904.371 361.291C904.41 361.529 904.467 361.734 904.541 361.906V362H903.41C903.355 361.875 903.312 361.709 903.281 361.502C903.25 361.291 903.234 361.096 903.234 360.916ZM903.422 358.156L903.434 358.918H902.338C902.029 358.918 901.754 358.943 901.512 358.994C901.27 359.041 901.066 359.113 900.902 359.211C900.738 359.309 900.613 359.432 900.527 359.58C900.441 359.725 900.398 359.895 900.398 360.09C900.398 360.289 900.443 360.471 900.533 360.635C900.623 360.799 900.758 360.93 900.938 361.027C901.121 361.121 901.346 361.168 901.611 361.168C901.943 361.168 902.236 361.098 902.49 360.957C902.744 360.816 902.945 360.645 903.094 360.441C903.246 360.238 903.328 360.041 903.34 359.85L903.803 360.371C903.775 360.535 903.701 360.717 903.58 360.916C903.459 361.115 903.297 361.307 903.094 361.49C902.895 361.67 902.656 361.82 902.379 361.941C902.105 362.059 901.797 362.117 901.453 362.117C901.023 362.117 900.646 362.033 900.322 361.865C900.002 361.697 899.752 361.473 899.572 361.191C899.396 360.906 899.309 360.588 899.309 360.236C899.309 359.896 899.375 359.598 899.508 359.34C899.641 359.078 899.832 358.861 900.082 358.689C900.332 358.514 900.633 358.381 900.984 358.291C901.336 358.201 901.729 358.156 902.162 358.156H903.422ZM907.107 356.656V362H906.023V355.66H907.078L907.107 356.656ZM909.088 355.625L909.082 356.633C908.992 356.613 908.906 356.602 908.824 356.598C908.746 356.59 908.656 356.586 908.555 356.586C908.305 356.586 908.084 356.625 907.893 356.703C907.701 356.781 907.539 356.891 907.406 357.031C907.273 357.172 907.168 357.34 907.09 357.535C907.016 357.727 906.967 357.938 906.943 358.168L906.639 358.344C906.639 357.961 906.676 357.602 906.75 357.266C906.828 356.93 906.947 356.633 907.107 356.375C907.268 356.113 907.471 355.91 907.717 355.766C907.967 355.617 908.264 355.543 908.607 355.543C908.686 355.543 908.775 355.553 908.877 355.572C908.979 355.588 909.049 355.605 909.088 355.625ZM911.18 353V362H910.09V353H911.18ZM915.053 355.66L912.287 358.619L910.74 360.225L910.652 359.07L911.76 357.746L913.729 355.66H915.053ZM914.062 362L911.801 358.977L912.363 358.01L915.34 362H914.062ZM918.686 362.117C918.244 362.117 917.844 362.043 917.484 361.895C917.129 361.742 916.822 361.529 916.564 361.256C916.311 360.982 916.115 360.658 915.979 360.283C915.842 359.908 915.773 359.498 915.773 359.053V358.807C915.773 358.291 915.85 357.832 916.002 357.43C916.154 357.023 916.361 356.68 916.623 356.398C916.885 356.117 917.182 355.904 917.514 355.76C917.846 355.615 918.189 355.543 918.545 355.543C918.998 355.543 919.389 355.621 919.717 355.777C920.049 355.934 920.32 356.152 920.531 356.434C920.742 356.711 920.898 357.039 921 357.418C921.102 357.793 921.152 358.203 921.152 358.648V359.135H916.418V358.25H920.068V358.168C920.053 357.887 919.994 357.613 919.893 357.348C919.795 357.082 919.639 356.863 919.424 356.691C919.209 356.52 918.916 356.434 918.545 356.434C918.299 356.434 918.072 356.486 917.865 356.592C917.658 356.693 917.48 356.846 917.332 357.049C917.184 357.252 917.068 357.5 916.986 357.793C916.904 358.086 916.863 358.424 916.863 358.807V359.053C916.863 359.354 916.904 359.637 916.986 359.902C917.072 360.164 917.195 360.395 917.355 360.594C917.52 360.793 917.717 360.949 917.947 361.062C918.182 361.176 918.447 361.232 918.744 361.232C919.127 361.232 919.451 361.154 919.717 360.998C919.982 360.842 920.215 360.633 920.414 360.371L921.07 360.893C920.934 361.1 920.76 361.297 920.549 361.484C920.338 361.672 920.078 361.824 919.77 361.941C919.465 362.059 919.104 362.117 918.686 362.117ZM925.072 355.66V356.492H921.645V355.66H925.072ZM922.805 354.119H923.889V360.43C923.889 360.645 923.922 360.807 923.988 360.916C924.055 361.025 924.141 361.098 924.246 361.133C924.352 361.168 924.465 361.186 924.586 361.186C924.676 361.186 924.77 361.178 924.867 361.162C924.969 361.143 925.045 361.127 925.096 361.115L925.102 362C925.016 362.027 924.902 362.053 924.762 362.076C924.625 362.104 924.459 362.117 924.264 362.117C923.998 362.117 923.754 362.064 923.531 361.959C923.309 361.854 923.131 361.678 922.998 361.432C922.869 361.182 922.805 360.846 922.805 360.424V354.119ZM927.521 355.66V362H926.432V355.66H927.521ZM926.35 353.979C926.35 353.803 926.402 353.654 926.508 353.533C926.617 353.412 926.777 353.352 926.988 353.352C927.195 353.352 927.354 353.412 927.463 353.533C927.576 353.654 927.633 353.803 927.633 353.979C927.633 354.146 927.576 354.291 927.463 354.412C927.354 354.529 927.195 354.588 926.988 354.588C926.777 354.588 926.617 354.529 926.508 354.412C926.402 354.291 926.35 354.146 926.35 353.979ZM930.346 357.014V362H929.262V355.66H930.287L930.346 357.014ZM930.088 358.59L929.637 358.572C929.641 358.139 929.705 357.738 929.83 357.371C929.955 357 930.131 356.678 930.357 356.404C930.584 356.131 930.854 355.92 931.166 355.771C931.482 355.619 931.832 355.543 932.215 355.543C932.527 355.543 932.809 355.586 933.059 355.672C933.309 355.754 933.521 355.887 933.697 356.07C933.877 356.254 934.014 356.492 934.107 356.785C934.201 357.074 934.248 357.428 934.248 357.846V362H933.158V357.834C933.158 357.502 933.109 357.236 933.012 357.037C932.914 356.834 932.771 356.688 932.584 356.598C932.396 356.504 932.166 356.457 931.893 356.457C931.623 356.457 931.377 356.514 931.154 356.627C930.936 356.74 930.746 356.896 930.586 357.096C930.43 357.295 930.307 357.523 930.217 357.781C930.131 358.035 930.088 358.305 930.088 358.59ZM940.002 355.66H940.986V361.865C940.986 362.424 940.873 362.9 940.646 363.295C940.42 363.689 940.104 363.988 939.697 364.191C939.295 364.398 938.83 364.502 938.303 364.502C938.084 364.502 937.826 364.467 937.529 364.396C937.236 364.33 936.947 364.215 936.662 364.051C936.381 363.891 936.145 363.674 935.953 363.4L936.521 362.756C936.787 363.076 937.064 363.299 937.354 363.424C937.646 363.549 937.936 363.611 938.221 363.611C938.564 363.611 938.861 363.547 939.111 363.418C939.361 363.289 939.555 363.098 939.691 362.844C939.832 362.594 939.902 362.285 939.902 361.918V357.055L940.002 355.66ZM935.637 358.9V358.777C935.637 358.293 935.693 357.854 935.807 357.459C935.924 357.061 936.09 356.719 936.305 356.434C936.523 356.148 936.787 355.93 937.096 355.777C937.404 355.621 937.752 355.543 938.139 355.543C938.537 355.543 938.885 355.613 939.182 355.754C939.482 355.891 939.736 356.092 939.943 356.357C940.154 356.619 940.32 356.936 940.441 357.307C940.562 357.678 940.646 358.098 940.693 358.566V359.105C940.65 359.57 940.566 359.988 940.441 360.359C940.32 360.73 940.154 361.047 939.943 361.309C939.736 361.57 939.482 361.771 939.182 361.912C938.881 362.049 938.529 362.117 938.127 362.117C937.748 362.117 937.404 362.037 937.096 361.877C936.791 361.717 936.529 361.492 936.311 361.203C936.092 360.914 935.924 360.574 935.807 360.184C935.693 359.789 935.637 359.361 935.637 358.9ZM936.721 358.777V358.9C936.721 359.217 936.752 359.514 936.814 359.791C936.881 360.068 936.98 360.312 937.113 360.523C937.25 360.734 937.424 360.9 937.635 361.021C937.846 361.139 938.098 361.197 938.391 361.197C938.75 361.197 939.047 361.121 939.281 360.969C939.516 360.816 939.701 360.615 939.838 360.365C939.979 360.115 940.088 359.844 940.166 359.551V358.139C940.123 357.924 940.057 357.717 939.967 357.518C939.881 357.314 939.768 357.135 939.627 356.979C939.49 356.818 939.32 356.691 939.117 356.598C938.914 356.504 938.676 356.457 938.402 356.457C938.105 356.457 937.85 356.52 937.635 356.645C937.424 356.766 937.25 356.934 937.113 357.148C936.98 357.359 936.881 357.605 936.814 357.887C936.752 358.164 936.721 358.461 936.721 358.777ZM899.385 369.225L896.561 377H895.406L898.658 368.469H899.402L899.385 369.225ZM901.752 377L898.922 369.225L898.904 368.469H899.648L902.912 377H901.752ZM901.605 373.842V374.768H896.812V373.842H901.605ZM907.998 370.66H908.982V376.865C908.982 377.424 908.869 377.9 908.643 378.295C908.416 378.689 908.1 378.988 907.693 379.191C907.291 379.398 906.826 379.502 906.299 379.502C906.08 379.502 905.822 379.467 905.525 379.396C905.232 379.33 904.943 379.215 904.658 379.051C904.377 378.891 904.141 378.674 903.949 378.4L904.518 377.756C904.783 378.076 905.061 378.299 905.35 378.424C905.643 378.549 905.932 378.611 906.217 378.611C906.561 378.611 906.857 378.547 907.107 378.418C907.357 378.289 907.551 378.098 907.688 377.844C907.828 377.594 907.898 377.285 907.898 376.918V372.055L907.998 370.66ZM903.633 373.9V373.777C903.633 373.293 903.689 372.854 903.803 372.459C903.92 372.061 904.086 371.719 904.301 371.434C904.52 371.148 904.783 370.93 905.092 370.777C905.4 370.621 905.748 370.543 906.135 370.543C906.533 370.543 906.881 370.613 907.178 370.754C907.479 370.891 907.732 371.092 907.939 371.357C908.15 371.619 908.316 371.936 908.438 372.307C908.559 372.678 908.643 373.098 908.689 373.566V374.105C908.646 374.57 908.562 374.988 908.438 375.359C908.316 375.73 908.15 376.047 907.939 376.309C907.732 376.57 907.479 376.771 907.178 376.912C906.877 377.049 906.525 377.117 906.123 377.117C905.744 377.117 905.4 377.037 905.092 376.877C904.787 376.717 904.525 376.492 904.307 376.203C904.088 375.914 903.92 375.574 903.803 375.184C903.689 374.789 903.633 374.361 903.633 373.9ZM904.717 373.777V373.9C904.717 374.217 904.748 374.514 904.811 374.791C904.877 375.068 904.977 375.312 905.109 375.523C905.246 375.734 905.42 375.9 905.631 376.021C905.842 376.139 906.094 376.197 906.387 376.197C906.746 376.197 907.043 376.121 907.277 375.969C907.512 375.816 907.697 375.615 907.834 375.365C907.975 375.115 908.084 374.844 908.162 374.551V373.139C908.119 372.924 908.053 372.717 907.963 372.518C907.877 372.314 907.764 372.135 907.623 371.979C907.486 371.818 907.316 371.691 907.113 371.598C906.91 371.504 906.672 371.457 906.398 371.457C906.102 371.457 905.846 371.52 905.631 371.645C905.42 371.766 905.246 371.934 905.109 372.148C904.977 372.359 904.877 372.605 904.811 372.887C904.748 373.164 904.717 373.461 904.717 373.777ZM913.26 377.117C912.818 377.117 912.418 377.043 912.059 376.895C911.703 376.742 911.396 376.529 911.139 376.256C910.885 375.982 910.689 375.658 910.553 375.283C910.416 374.908 910.348 374.498 910.348 374.053V373.807C910.348 373.291 910.424 372.832 910.576 372.43C910.729 372.023 910.936 371.68 911.197 371.398C911.459 371.117 911.756 370.904 912.088 370.76C912.42 370.615 912.764 370.543 913.119 370.543C913.572 370.543 913.963 370.621 914.291 370.777C914.623 370.934 914.895 371.152 915.105 371.434C915.316 371.711 915.473 372.039 915.574 372.418C915.676 372.793 915.727 373.203 915.727 373.648V374.135H910.992V373.25H914.643V373.168C914.627 372.887 914.568 372.613 914.467 372.348C914.369 372.082 914.213 371.863 913.998 371.691C913.783 371.52 913.49 371.434 913.119 371.434C912.873 371.434 912.646 371.486 912.439 371.592C912.232 371.693 912.055 371.846 911.906 372.049C911.758 372.252 911.643 372.5 911.561 372.793C911.479 373.086 911.438 373.424 911.438 373.807V374.053C911.438 374.354 911.479 374.637 911.561 374.902C911.646 375.164 911.77 375.395 911.93 375.594C912.094 375.793 912.291 375.949 912.521 376.062C912.756 376.176 913.021 376.232 913.318 376.232C913.701 376.232 914.025 376.154 914.291 375.998C914.557 375.842 914.789 375.633 914.988 375.371L915.645 375.893C915.508 376.1 915.334 376.297 915.123 376.484C914.912 376.672 914.652 376.824 914.344 376.941C914.039 377.059 913.678 377.117 913.26 377.117ZM918.076 372.014V377H916.992V370.66H918.018L918.076 372.014ZM917.818 373.59L917.367 373.572C917.371 373.139 917.436 372.738 917.561 372.371C917.686 372 917.861 371.678 918.088 371.404C918.314 371.131 918.584 370.92 918.896 370.771C919.213 370.619 919.562 370.543 919.945 370.543C920.258 370.543 920.539 370.586 920.789 370.672C921.039 370.754 921.252 370.887 921.428 371.07C921.607 371.254 921.744 371.492 921.838 371.785C921.932 372.074 921.979 372.428 921.979 372.846V377H920.889V372.834C920.889 372.502 920.84 372.236 920.742 372.037C920.645 371.834 920.502 371.688 920.314 371.598C920.127 371.504 919.896 371.457 919.623 371.457C919.354 371.457 919.107 371.514 918.885 371.627C918.666 371.74 918.477 371.896 918.316 372.096C918.16 372.295 918.037 372.523 917.947 372.781C917.861 373.035 917.818 373.305 917.818 373.59ZM926.162 376.227C926.42 376.227 926.658 376.174 926.877 376.068C927.096 375.963 927.275 375.818 927.416 375.635C927.557 375.447 927.637 375.234 927.656 374.996H928.688C928.668 375.371 928.541 375.721 928.307 376.045C928.076 376.365 927.773 376.625 927.398 376.824C927.023 377.02 926.611 377.117 926.162 377.117C925.686 377.117 925.27 377.033 924.914 376.865C924.562 376.697 924.27 376.467 924.035 376.174C923.805 375.881 923.631 375.545 923.514 375.166C923.4 374.783 923.344 374.379 923.344 373.953V373.707C923.344 373.281 923.4 372.879 923.514 372.5C923.631 372.117 923.805 371.779 924.035 371.486C924.27 371.193 924.562 370.963 924.914 370.795C925.27 370.627 925.686 370.543 926.162 370.543C926.658 370.543 927.092 370.645 927.463 370.848C927.834 371.047 928.125 371.32 928.336 371.668C928.551 372.012 928.668 372.402 928.688 372.84H927.656C927.637 372.578 927.562 372.342 927.434 372.131C927.309 371.92 927.137 371.752 926.918 371.627C926.703 371.498 926.451 371.434 926.162 371.434C925.83 371.434 925.551 371.5 925.324 371.633C925.102 371.762 924.924 371.938 924.791 372.16C924.662 372.379 924.568 372.623 924.51 372.893C924.455 373.158 924.428 373.43 924.428 373.707V373.953C924.428 374.23 924.455 374.504 924.51 374.773C924.564 375.043 924.656 375.287 924.785 375.506C924.918 375.725 925.096 375.9 925.318 376.033C925.545 376.162 925.826 376.227 926.162 376.227ZM931.688 376.344L933.451 370.66H934.611L932.068 377.979C932.01 378.135 931.932 378.303 931.834 378.482C931.74 378.666 931.619 378.84 931.471 379.004C931.322 379.168 931.143 379.301 930.932 379.402C930.725 379.508 930.477 379.561 930.188 379.561C930.102 379.561 929.992 379.549 929.859 379.525C929.727 379.502 929.633 379.482 929.578 379.467L929.572 378.588C929.604 378.592 929.652 378.596 929.719 378.6C929.789 378.607 929.838 378.611 929.865 378.611C930.111 378.611 930.32 378.578 930.492 378.512C930.664 378.449 930.809 378.342 930.926 378.189C931.047 378.041 931.15 377.836 931.236 377.574L931.688 376.344ZM930.393 370.66L932.039 375.582L932.32 376.725L931.541 377.123L929.209 370.66H930.393Z" fill="#EF4768"/>
</g>
<g clip-path="url(#clip3_479_433)">
<path d="M39.0243 99.3928C60.5768 110.629 87.157 102.265 98.3929 80.713C109.629 59.1605 101.266 32.5803 79.7131 21.3444C58.1607 10.1085 31.5805 18.4717 20.3446 40.0242C9.10866 61.5766 17.4719 88.1568 39.0243 99.3928Z" fill="#4DC0B3"/>
<path fill-rule="evenodd" clip-rule="evenodd" d="M65.2508 40.267C65.2135 39.1761 65.0251 38.0401 64.4772 37.0748C63.8583 35.9843 62.8158 35.2004 61.4788 35.048C60.3171 34.9156 59.2706 35.3011 58.5044 35.7047C57.7008 36.1281 56.9267 36.7191 56.2107 37.3715C53.3993 39.9336 50.3454 44.5006 48.5774 49.0747C47.2769 52.4393 45.8916 56.6814 45.4327 60.6447C43.7966 61.601 42.4725 62.038 41.5646 62.069C40.6372 62.1006 40.0781 61.8572 39.6898 61.5573C39.2596 61.2251 38.8576 60.6777 38.5323 59.8648C37.8594 58.1832 37.7546 55.9617 37.9164 54.4097L32.7179 53.8677C32.5044 55.9146 32.583 59.066 33.6797 61.8067C34.2392 63.2048 35.1186 64.6309 36.4949 65.6939C37.913 66.7892 39.6854 67.3628 41.7429 67.2926C43.0063 67.2495 44.3068 66.9162 45.5939 66.3922C45.9337 67.9409 46.5835 69.4332 47.7195 70.6671C49.546 72.6514 52.1988 73.5104 55.3991 73.4013C56.5716 73.3612 57.6977 73.1837 58.7755 72.8915C58.9693 73.295 59.1833 73.7076 59.4175 74.128C60.409 75.9095 61.8229 77.9479 63.7886 80.1906C63.6018 80.2019 63.4177 80.216 63.2364 80.2336C61.4951 80.3984 60.0329 80.8258 59.0024 81.2109C58.4845 81.4053 58.0676 81.5919 57.7696 81.7355C57.6203 81.8073 57.5002 81.8693 57.4114 81.9165C57.3669 81.9404 57.3302 81.9601 57.3016 81.9763L57.2647 81.9968L57.2507 82.0052L57.245 82.008L57.2424 82.0094C57.2412 82.0101 57.24 82.0108 58.5462 84.2747C59.8523 86.5378 59.8512 86.5385 59.8501 86.5392L59.848 86.5406L59.8444 86.5427L59.8393 86.5455C59.8368 86.5469 59.8361 86.5476 59.8373 86.5469C59.8396 86.5455 59.849 86.5399 59.8654 86.5314C59.8981 86.5138 59.9582 86.4829 60.0434 86.442C60.2144 86.3589 60.4837 86.2378 60.8347 86.1061C61.5421 85.8414 62.5484 85.5485 63.73 85.4365C66.023 85.2189 69.0536 85.6597 72.0499 88.5777L75.6967 84.833C72.6998 81.9151 72.1752 78.8929 72.3295 76.5904C72.409 75.4046 72.6738 74.3892 72.9188 73.6738C73.0406 73.3182 73.1547 73.0457 73.2322 72.8718C73.2716 72.7859 73.3005 72.7246 73.3174 72.6915C73.3258 72.6746 73.3307 72.6655 73.3314 72.6627L73.3307 72.6648L73.3279 72.6697L73.3258 72.6739L73.3251 72.676C73.3244 72.6767 73.3237 72.6781 71.024 71.4367C68.7245 70.1948 68.7238 70.196 68.7231 70.1973L68.7217 70.2L68.7185 70.2058L68.7111 70.22L68.6914 70.2574C68.6764 70.2865 68.6573 70.3238 68.635 70.3688C68.5903 70.459 68.5319 70.5809 68.464 70.7321C68.3284 71.0341 68.1538 71.4565 67.9745 71.9796C67.6304 72.9837 67.2591 74.3913 67.1282 76.0566C65.6971 74.3484 64.685 72.845 63.9845 71.586C63.8155 71.2827 63.6654 70.9945 63.5323 70.7225C66.3286 68.8958 68.6554 66.3309 70.4649 63.6458C73.8314 58.6496 75.8692 52.5816 75.9741 48.1201L75.9755 48.0449L75.9734 47.9698C75.9354 46.8592 75.5502 45.0524 73.7673 44.2336C72.1471 43.4892 70.5487 44.1498 69.6248 44.6838C66.9988 46.2017 63.8813 49.1683 61.4607 53.0608C59.0362 56.9596 57.204 61.9593 57.3683 67.6085C57.3648 67.6889 57.3632 67.7708 57.3633 67.8541C56.6614 68.0424 55.9463 68.1526 55.2208 68.1773C53.0482 68.2515 52.0658 67.6713 51.5648 67.1271C50.9961 66.5094 50.5695 65.4218 50.5089 63.6484C50.5078 63.6148 50.5068 63.581 50.5059 63.5471C52.7575 61.8927 54.9995 59.7978 57.0185 57.5104C59.3111 54.9133 61.3781 51.9977 62.8653 49.0883C64.329 46.2249 65.3487 43.1381 65.2508 40.267ZM53.1001 54.0516C52.7195 54.4828 52.3322 54.9038 51.9401 55.3129C52.3886 53.8392 52.9091 52.3651 53.4526 50.9591C54.9797 47.0079 57.6156 43.1627 59.7312 41.2348C59.8324 41.1425 59.9295 41.0574 60.0225 40.9789C59.9472 42.5172 59.3514 44.4792 58.2113 46.7095C56.9584 49.1606 55.1593 51.7188 53.1001 54.0516ZM61.154 40.235C61.1547 40.2348 61.1551 40.2347 61.1551 40.2347C61.1551 40.2347 61.1545 40.2347 61.1532 40.2351C61.1521 40.2354 61.1506 40.2358 61.1487 40.2363C61.1512 40.2358 61.153 40.2353 61.154 40.235ZM66.1302 60.7252C65.0893 62.2699 63.9401 63.636 62.7058 64.763C63.0834 61.4162 64.3104 58.3757 65.8992 55.8209C67.3233 53.5308 68.9853 51.7158 70.4614 50.4803C69.8709 53.5503 68.3926 57.3675 66.1302 60.7252Z" fill="#FAF9F6"/>
</g>
<defs>
<clipPath id="clip0_479_433">
<rect width="1030" height="348" fill="white" transform="translate(14 13)"/>
</clipPath>
<clipPath id="clip1_479_433">
<rect width="1031" height="372" fill="white" transform="translate(36)"/>
</clipPath>
<clipPath id="clip2_479_433">
<rect width="91" height="91" fill="white" transform="translate(870 317)"/>
</clipPath>
<clipPath id="clip3_479_433">
<rect width="119" height="119" fill="white" transform="translate(0 1)"/>
</clipPath>
</defs>
</svg>
