<svg width="80" height="80" viewBox="0 0 80 80" fill="none" xmlns="http://www.w3.org/2000/svg">
<rect width="80" height="80" rx="10" fill="#DAFFFB"/>
<path d="M40 34C36.6862 34 34 31.3137 34 28C34 24.6863 36.6862 22 40 22C43.3138 22 46 24.6863 46 28C46 31.3137 43.3138 34 40 34Z" stroke="#4DC0B3" stroke-width="2.5"/>
<path d="M27 58C23.6863 58 21 55.3138 21 52C21 48.6862 23.6863 46 27 46C30.3137 46 33 48.6862 33 52C33 55.3138 30.3137 58 27 58Z" stroke="#4DC0B3" stroke-width="2.5"/>
<path d="M53 58C49.6862 58 47 55.3138 47 52C47 48.6862 49.6862 46 53 46C56.3138 46 59 48.6862 59 52C59 55.3138 56.3138 58 53 58Z" stroke="#4DC0B3" stroke-width="2.5"/>
<path d="M56 42C56 37.2212 53.905 32.9318 50.5832 30M24 42C24 37.2212 26.095 32.9318 29.4168 30M36 57.496C37.2784 57.825 38.6188 58 40 58C41.3812 58 42.7216 57.825 44 57.496" stroke="#4DC0B3" stroke-width="2.5" stroke-linecap="round"/>
</svg>
