<svg width="56" height="56" viewBox="0 0 56 56" fill="none" xmlns="http://www.w3.org/2000/svg">
<rect width="56" height="56" rx="10" fill="#DAFFFB"/>
<path d="M32.7495 14.2634V23.0364C32.749 23.1702 32.7805 23.3021 32.8415 23.4211L42.5596 41.8202C42.7612 42.2023 42.8607 42.6301 42.8485 43.062C42.8363 43.4939 42.7128 43.9153 42.4898 44.2855C42.2669 44.6556 41.9522 44.9619 41.5761 45.1747C41.2 45.3875 40.7754 45.4995 40.3433 45.5H15.7053C15.262 45.4993 14.8267 45.3812 14.4438 45.1575C14.0609 44.9339 13.7442 44.6129 13.5258 44.227C13.3073 43.8412 13.1951 43.4043 13.2004 42.961C13.2057 42.5176 13.3284 42.0836 13.556 41.7031L24.4867 23.4379C24.5633 23.3088 24.6037 23.1614 24.6038 23.0113V14.2634" stroke="#4DC0B3" stroke-width="2.5" stroke-linecap="round"/>
<path d="M24.6036 14.2634H22.8807C22.3817 14.2634 21.9031 14.0652 21.5502 13.7123C21.1973 13.3594 20.999 12.8808 20.999 12.3817C20.999 11.8827 21.1973 11.404 21.5502 11.0511C21.9031 10.6983 22.3817 10.5 22.8807 10.5H34.3132C34.8123 10.5 35.2909 10.6983 35.6438 11.0511C35.9967 11.404 36.195 11.8827 36.195 12.3817C36.195 12.8808 35.9967 13.3594 35.6438 13.7123C35.2909 14.0652 34.8123 14.2634 34.3132 14.2634H32.7493" stroke="#4DC0B3" stroke-width="2.5" stroke-linecap="round"/>
<path d="M21.4507 28.506C23.0402 28.0759 24.6584 27.7601 26.293 27.5609C27.5642 27.5609 29.9561 29.175 31.3109 29.3423C32.3898 29.4845 35.5761 28.506 35.5761 28.506" stroke="#4DC0B3" stroke-width="2.5" stroke-linecap="round"/>
<path d="M33.285 42.2133C35.0078 42.2133 36.4045 40.8167 36.4045 39.0938C36.4045 37.371 35.0078 35.9744 33.285 35.9744C31.5622 35.9744 30.1655 37.371 30.1655 39.0938C30.1655 40.8167 31.5622 42.2133 33.285 42.2133Z" stroke="#4DC0B3" stroke-width="2.5" stroke-linecap="round"/>
<path d="M25.6408 36.2419C26.9572 36.2419 28.0243 35.1747 28.0243 33.8584C28.0243 32.542 26.9572 31.4749 25.6408 31.4749C24.3245 31.4749 23.2573 32.542 23.2573 33.8584C23.2573 35.1747 24.3245 36.2419 25.6408 36.2419Z" stroke="#4DC0B3" stroke-width="2.5" stroke-linecap="round"/>
</svg>
