<svg width="80" height="80" viewBox="0 0 80 80" fill="none" xmlns="http://www.w3.org/2000/svg">
<rect width="80" height="80" rx="10" fill="#FFCED7"/>
<path d="M49 17.875H31C28.723 17.878 26.878 19.723 26.875 22V58C26.878 60.277 28.723 62.122 31 62.125H49C51.277 62.122 53.122 60.277 53.125 58V22C53.122 19.723 51.277 17.878 49 17.875ZM50.875 58C50.8735 59.035 50.035 59.8735 49 59.875H31C29.965 59.8735 29.1265 59.035 29.125 58V22C29.1265 20.965 29.965 20.1265 31 20.125H49C50.035 20.1265 50.8735 20.965 50.875 22V58ZM43 54.625H37C36.379 54.625 35.875 55.129 35.875 55.75C35.875 56.371 36.379 56.875 37 56.875H43C43.621 56.875 44.125 56.371 44.125 55.75C44.125 55.129 43.621 54.625 43 54.625Z" fill="#EF4768" stroke="#EF4768" stroke-width="0.5"/>
</svg>
