<svg width="80" height="80" viewBox="0 0 80 80" fill="none" xmlns="http://www.w3.org/2000/svg">
<rect width="80" height="80" rx="10" fill="#FFCED7"/>
<path fill-rule="evenodd" clip-rule="evenodd" d="M23.7707 26.4742C22.4108 27.737 21.5 29.7859 21.5 33V47C21.5 50.214 22.4108 52.263 23.7707 53.5258C25.1507 54.8072 27.2299 55.5 30 55.5H50C52.77 55.5 54.8492 54.8072 56.2294 53.5258C57.5892 52.263 58.5 50.214 58.5 47V33C58.5 29.7859 57.5892 27.737 56.2294 26.4742C54.8492 25.1927 52.77 24.5 50 24.5H30C27.2299 24.5 25.1507 25.1927 23.7707 26.4742ZM21.7293 24.2758C23.8493 22.3073 26.7701 21.5 30 21.5H50C53.23 21.5 56.1508 22.3073 58.2706 24.2758C60.4108 26.263 61.5 29.2141 61.5 33V47C61.5 50.786 60.4108 53.737 58.2706 55.7242C56.1508 57.6928 53.23 58.5 50 58.5H30C26.7701 58.5 23.8493 57.6928 21.7293 55.7242C19.5892 53.737 18.5 50.786 18.5 47V33C18.5 29.2141 19.5892 26.263 21.7293 24.2758Z" fill="#EF4768"/>
<path fill-rule="evenodd" clip-rule="evenodd" d="M54.7266 30.6205C55.2332 31.276 55.1124 32.2181 54.457 32.7246L43.3628 41.2972C41.382 42.8276 38.6178 42.8276 36.637 41.2972L25.5429 32.7246C24.8873 32.2181 24.7666 31.276 25.2731 30.6205C25.7796 29.965 26.7217 29.8442 27.3772 30.3507L38.4712 38.9232C39.3716 39.619 40.6282 39.619 41.5284 38.9232L52.6226 30.3507C53.2782 29.8442 54.2202 29.965 54.7266 30.6205Z" fill="#EF4768"/>
</svg>
