<svg width="80" height="80" viewBox="0 0 80 80" fill="none" xmlns="http://www.w3.org/2000/svg">
<rect width="80" height="80" rx="10" fill="#DAFFFB"/>
<path fill-rule="evenodd" clip-rule="evenodd" d="M31.8903 20.5H48.1098C50.845 20.5 53.0496 20.4999 54.7836 20.733C56.5838 20.9751 58.0994 21.4929 59.3034 22.6967C60.5072 23.9005 61.025 25.4163 61.267 27.2165C61.5 28.9504 61.5 31.1551 61.5 33.8903V36.1098C61.5 38.845 61.5 41.0496 61.267 42.7836C61.025 44.5838 60.5072 46.0994 59.3034 47.3034C58.0994 48.5072 56.5838 49.025 54.7836 49.267C53.0496 49.5 50.845 49.5 48.1098 49.5H41.5V52.9188L52.4744 56.577C53.2602 56.839 53.685 57.6884 53.423 58.4744C53.161 59.2602 52.3116 59.685 51.5256 59.423L40 55.5812L28.4743 59.423C27.6884 59.685 26.8389 59.2602 26.577 58.4744C26.315 57.6884 26.7397 56.839 27.5257 56.577L38.5 52.9188V49.5H31.8903C29.1551 49.5 26.9504 49.5 25.2165 49.267C23.4163 49.025 21.9005 48.5072 20.6967 47.3034C19.4929 46.0994 18.9751 44.5838 18.733 42.7836C18.4999 41.0496 18.5 38.845 18.5 36.1098V33.8903C18.5 31.1551 18.4999 28.9504 18.733 27.2165C18.9751 25.4163 19.4929 23.9005 20.6967 22.6967C21.9005 21.4929 23.4163 20.9751 25.2165 20.733C26.9504 20.4999 29.1551 20.5 31.8903 20.5ZM25.6162 23.7063C24.1487 23.9036 23.3715 24.2645 22.818 24.818C22.2645 25.3715 21.9036 26.1487 21.7063 27.6162C21.5032 29.1269 21.5 31.1292 21.5 34V36C21.5 38.8708 21.5032 40.873 21.7063 42.3838C21.9036 43.8514 22.2645 44.6284 22.818 45.182C23.3715 45.7356 24.1487 46.0964 25.6162 46.2938C27.1269 46.4968 29.1292 46.5 32 46.5H48C50.8708 46.5 52.873 46.4968 54.3838 46.2938C55.8514 46.0964 56.6284 45.7356 57.182 45.182C57.7356 44.6284 58.0964 43.8514 58.2938 42.3838C58.4968 40.873 58.5 38.8708 58.5 36V34C58.5 31.1292 58.4968 29.1269 58.2938 27.6162C58.0964 26.1487 57.7356 25.3715 57.182 24.818C56.6284 24.2645 55.8514 23.9036 54.3838 23.7063C52.873 23.5032 50.8708 23.5 48 23.5H32C29.1292 23.5 27.1269 23.5032 25.6162 23.7063Z" fill="#4DC0B3"/>
</svg>
