<svg width="56" height="56" viewBox="0 0 56 56" fill="none" xmlns="http://www.w3.org/2000/svg">
<rect width="56" height="56" rx="10" fill="#FFCED7"/>
<path d="M34.6667 41.3333H21.3334C16.0001 41.3333 14.6667 40 14.6667 34.6666V32C14.6667 26.6666 16.0001 25.3333 21.3334 25.3333H34.6667C40.0001 25.3333 41.3334 26.6666 41.3334 32V34.6666C41.3334 40 40.0001 41.3333 34.6667 41.3333Z" stroke="#EF4768" stroke-width="1.5" stroke-linecap="round" stroke-linejoin="round"/>
<path d="M20 25.3334V22.6667C20 18.2534 21.3333 14.6667 28 14.6667C34 14.6667 36 17.3334 36 21.3334" stroke="#EF4768" stroke-width="1.5" stroke-linecap="round" stroke-linejoin="round"/>
<path d="M28.0001 36.6667C29.841 36.6667 31.3334 35.1743 31.3334 33.3333C31.3334 31.4924 29.841 30 28.0001 30C26.1591 30 24.6667 31.4924 24.6667 33.3333C24.6667 35.1743 26.1591 36.6667 28.0001 36.6667Z" stroke="#EF4768" stroke-width="1.5" stroke-linecap="round" stroke-linejoin="round"/>
</svg>
