<svg width="123" height="122" viewBox="0 0 123 122" fill="none" xmlns="http://www.w3.org/2000/svg">
<path d="M16.3883 45.7247C24.6335 20.8206 51.5063 7.31584 76.4104 15.561C101.315 23.8062 114.819 50.679 106.574 75.5831C98.3289 100.487 71.4561 113.992 46.552 105.747C21.6479 97.5016 8.14315 70.6288 16.3883 45.7247Z" fill="#4DC0B3" stroke="#FAF9F6"/>
<path d="M28.6491 55.0509L31.8493 45.3851L33.6002 45.9648L30.8861 54.1628L35.1432 55.5722L34.6572 57.0401L28.6491 55.0509ZM39.2639 58.7223C38.5371 58.4817 37.9594 58.1228 37.5308 57.6458C37.1064 57.1666 36.8448 56.6017 36.746 55.951C36.6482 55.2972 36.7249 54.5911 36.9759 53.8329C37.2228 53.0871 37.5811 52.4796 38.0507 52.0101C38.5246 51.5385 39.07 51.2303 39.687 51.0855C40.3051 50.9375 40.9603 50.9781 41.6525 51.2073C42.0993 51.3552 42.4969 51.5672 42.8455 51.8431C43.1982 52.117 43.4777 52.454 43.6839 52.8539C43.8933 53.2549 44.0095 53.7158 44.0326 54.2367C44.0567 54.7544 43.9636 55.3311 43.7531 55.9666L43.5797 56.4905L37.6376 54.5233L38.0189 53.3717L42.3232 54.7967C42.4284 54.4685 42.454 54.154 42.3999 53.8533C42.3469 53.5494 42.2206 53.2824 42.021 53.0522C41.8245 52.8231 41.5627 52.6544 41.2354 52.546C40.8862 52.4304 40.5513 52.4138 40.2307 52.4962C39.9112 52.5755 39.6322 52.7275 39.3937 52.9522C39.1594 53.1749 38.987 53.4478 38.8766 53.7708L38.5437 54.7761C38.4041 55.1977 38.3614 55.5851 38.4156 55.9382C38.4708 56.2881 38.6103 56.5892 38.8341 56.8413C39.0589 57.0903 39.3569 57.2763 39.7282 57.3992C39.9767 57.4815 40.2132 57.5214 40.4375 57.5188C40.6628 57.5131 40.8723 57.4655 41.066 57.376C41.2598 57.2866 41.4282 57.1521 41.5715 56.9725L43.1073 57.68C42.867 58.0683 42.5532 58.3729 42.1659 58.5938C41.7827 58.8126 41.3438 58.9361 40.8492 58.9644C40.3556 58.9895 39.8271 58.9088 39.2639 58.7223ZM49.9998 54.0756L49.5623 55.3971L45.3948 54.0174L45.8323 52.6959L49.9998 54.0756ZM47.4363 51.2997L49.1448 51.8653L46.8916 58.6711C46.8155 58.9008 46.7918 59.0884 46.8204 59.234C46.8532 59.3776 46.9205 59.4906 47.0223 59.5732C47.1241 59.6558 47.2458 59.7205 47.3874 59.7674C47.4944 59.8028 47.5946 59.8273 47.6879 59.8407C47.7843 59.8552 47.8582 59.8639 47.9096 59.867L47.7553 61.298C47.6536 61.2992 47.5116 61.2906 47.3292 61.2721C47.1499 61.2546 46.9381 61.209 46.6938 61.135C46.2617 61.006 45.8976 60.8138 45.6015 60.5587C45.3065 60.3004 45.1083 59.9869 45.0069 59.6182C44.9087 59.2505 44.9361 58.8406 45.0893 58.3886L47.4363 51.2997ZM53.4086 52.5229L52.2304 56.0815L50.9278 55.6502L52.106 52.0916L53.4086 52.5229ZM59.3534 59.2986L57.7396 58.9528C57.7477 58.7809 57.7195 58.6075 57.6552 58.4326C57.5941 58.2588 57.4863 58.0991 57.332 57.9538C57.1776 57.8084 56.9683 57.692 56.704 57.6045C56.3484 57.4867 56.024 57.4649 55.7307 57.5388C55.4405 57.6138 55.2564 57.7746 55.1783 58.021C55.1053 58.2308 55.1256 58.4278 55.2392 58.612C55.3559 58.7973 55.5843 58.9934 55.9243 59.2002L57.0733 59.8739C57.7103 60.2489 58.1424 60.652 58.3697 61.0834C58.6001 61.5158 58.6309 61.9921 58.4622 62.5123C58.308 62.9675 58.0409 63.326 57.661 63.5877C57.2853 63.8474 56.8323 63.9976 56.302 64.0385C55.7717 64.0794 55.2046 63.9999 54.6004 63.7999C53.7131 63.5061 53.0604 63.084 52.6421 62.5336C52.2249 61.98 52.0748 61.3525 52.1918 60.651L53.9109 61.0422C53.8781 61.3944 53.9568 61.6945 54.147 61.9425C54.3372 62.1905 54.629 62.3796 55.0223 62.5099C55.4282 62.6442 55.7815 62.6687 56.0821 62.5832C56.3859 62.4987 56.5784 62.3338 56.6596 62.0883C56.7284 61.8807 56.7049 61.6826 56.5893 61.4942C56.4767 61.3068 56.2657 61.1217 55.9561 60.9389L54.8055 60.27C54.1581 59.895 53.7244 59.4809 53.5044 59.0275C53.2854 58.5709 53.2651 58.0789 53.4432 57.5513C53.588 57.1035 53.8373 56.7566 54.191 56.5106C54.549 56.2625 54.9779 56.1217 55.4778 56.0882C55.9818 56.0526 56.5233 56.1307 57.1023 56.3223C57.9518 56.6036 58.5605 57.0059 58.9284 57.5292C59.2995 58.0535 59.4411 58.6433 59.3534 59.2986ZM64.8138 57.9276L65.2998 56.4597L73.0117 59.013L72.5257 60.4808L69.5382 59.4917L66.824 67.6897L65.0872 67.1147L67.8014 58.9167L64.8138 57.9276ZM72.274 69.6564C71.8146 69.5043 71.4279 69.2855 71.114 69C70.8042 68.7124 70.596 68.3712 70.4893 67.9763C70.3858 67.5824 70.4127 67.1479 70.57 66.6728C70.7054 66.2637 70.8929 65.9505 71.1325 65.7331C71.372 65.5156 71.649 65.3699 71.9633 65.2959C72.2775 65.2219 72.6118 65.1981 72.9661 65.2247C73.3246 65.2491 73.6863 65.3008 74.0513 65.3797C74.4906 65.4763 74.8482 65.551 75.1239 65.6039C75.4007 65.6536 75.6114 65.6605 75.756 65.6246C75.9047 65.5866 76.0062 65.4858 76.0604 65.3221L76.0697 65.2938C76.1874 64.9383 76.1732 64.6281 76.027 64.3632C75.8807 64.0983 75.6094 63.9003 75.2129 63.769C74.7945 63.6305 74.4323 63.6118 74.1265 63.713C73.8238 63.8153 73.5888 63.9767 73.4216 64.1971L71.9013 63.4424C72.173 63.0436 72.5026 62.7442 72.89 62.5443C73.2784 62.3412 73.7063 62.235 74.1738 62.2257C74.6422 62.2132 75.1298 62.2908 75.6363 62.4585C75.9856 62.5742 76.3197 62.7302 76.6388 62.9266C76.9578 63.123 77.2292 63.363 77.453 63.6465C77.6779 63.927 77.8237 64.2563 77.8905 64.6345C77.9605 65.0138 77.9157 65.4441 77.7564 65.9255L76.15 70.7773L74.5076 70.2336L74.8373 69.2377L74.7807 69.219C74.6102 69.386 74.4014 69.5263 74.1542 69.64C73.9113 69.7516 73.6305 69.814 73.3119 69.8272C72.9975 69.8384 72.6515 69.7814 72.274 69.6564ZM73.1333 68.5479C73.4762 68.6614 73.796 68.6922 74.0925 68.6403C74.39 68.5851 74.6439 68.4667 74.8542 68.285C75.0677 68.1043 75.2187 67.8802 75.3072 67.6127L75.5901 66.7585C75.522 66.7848 75.4172 66.7955 75.2757 66.7906C75.1373 66.7866 74.9848 66.7728 74.8181 66.749C74.6514 66.7253 74.4873 66.6989 74.3259 66.6699C74.1644 66.6408 74.0244 66.6154 73.9059 66.5937C73.6396 66.5439 73.3927 66.525 73.1653 66.537C72.9379 66.549 72.7426 66.6065 72.5793 66.7096C72.417 66.8095 72.2994 66.9695 72.2265 67.1898C72.1223 67.5044 72.1585 67.78 72.3351 68.0165C72.5117 68.253 72.7777 68.4302 73.1333 68.5479ZM82.7766 62.2459L79.5765 71.9118L77.868 71.3461L81.0681 61.6803L82.7766 62.2459ZM83.644 70.7342L84.3222 68.6702L84.5959 68.7608L88.1653 66.7113L90.1617 67.3723L85.7757 69.8793L85.4218 69.7621L83.644 70.7342ZM81.3334 72.4934L84.5335 62.8276L86.2421 63.3932L83.0419 73.0591L81.3334 72.4934ZM85.8831 73.9997L84.6156 69.9194L86.1656 69.0972L87.9268 74.6763L85.8831 73.9997ZM94.1911 66.025L91.7759 72.798L90.2562 72.2949L92.3646 65.4203L94.1911 66.025ZM90.041 75.4915C89.7547 75.3967 89.5426 75.2148 89.4047 74.9457C89.27 74.6777 89.2506 74.3989 89.3464 74.1094C89.4402 73.8263 89.6211 73.6173 89.8891 73.4826C90.1603 73.349 90.4391 73.3295 90.7254 73.4243C91.0054 73.517 91.2144 73.6979 91.3522 73.967C91.4932 74.2371 91.5168 74.5138 91.4231 74.797C91.3595 74.9889 91.253 75.1474 91.1033 75.2724C90.9569 75.3985 90.7893 75.4827 90.6008 75.525C90.4164 75.5652 90.2298 75.554 90.041 75.4915Z" fill="black"/>
</svg>
