<svg width="80" height="80" viewBox="0 0 80 80" fill="none" xmlns="http://www.w3.org/2000/svg">
<rect width="80" height="80" rx="10" fill="#DAFFFB"/>
<g clip-path="url(#clip0_173_867)">
<path d="M30.2004 44.8V45H30.4004H32.0004H32.2004V44.8V33.6C32.2004 31.4705 33.8708 29.8 36.0004 29.8H39.0004V33.6V33.8H39.2004H40.8004H41.0004V33.6V29.8H44.0004C46.1299 29.8 47.8004 31.4705 47.8004 33.6V44.8V45H48.0004H49.6004H49.8004V44.8V33.6C49.8004 30.3695 47.2308 27.8 44.0004 27.8H36.0004C32.7699 27.8 30.2004 30.3695 30.2004 33.6V44.8Z" fill="#4DC0B3" stroke="#4DC0B3" stroke-width="0.4"/>
<path d="M39.2002 27.4H40.8002C43.1507 27.4 45.0002 25.5505 45.0002 23.2V20.8C45.0002 18.4496 43.1507 16.6 40.8002 16.6H39.2002C36.8497 16.6 35.0002 18.4496 35.0002 20.8V23.2C35.0002 25.5505 36.8497 27.4 39.2002 27.4ZM37.0002 20.8C37.0002 19.5505 37.9507 18.6 39.2002 18.6H40.8002C42.0497 18.6 43.0002 19.5505 43.0002 20.8V23.2C43.0002 24.4496 42.0497 25.4 40.8002 25.4H39.2002C37.9507 25.4 37.0002 24.4496 37.0002 23.2V20.8Z" fill="#4DC0B3" stroke="#4DC0B3" stroke-width="0.4"/>
<path d="M41.0002 41.6001V41.4001H40.8002H39.2002H39.0002V41.6001V43.2001V43.4001H39.2002H40.8002H41.0002V43.2001V41.6001Z" fill="#4DC0B3" stroke="#4DC0B3" stroke-width="0.4"/>
<path d="M41.0002 38.4V38.2H40.8002H39.2002H39.0002V38.4V40V40.2H39.2002H40.8002H41.0002V40V38.4Z" fill="#4DC0B3" stroke="#4DC0B3" stroke-width="0.4"/>
<path d="M41.0002 35.2001V35.0001H40.8002H39.2002H39.0002V35.2001V36.8001V37.0001H39.2002H40.8002H41.0002V36.8001V35.2001Z" fill="#4DC0B3" stroke="#4DC0B3" stroke-width="0.4"/>
<path d="M64 61.4H54.6V59.2C54.6 57.7296 53.4705 56.6 52 56.6H50.6V52.8C50.6 52.5146 50.504 52.2612 50.3214 52.0786C50.1389 51.896 49.8855 51.8 49.6 51.8H45.8V34.4V34.2H45.6H44H43.8V34.4V51.8H41V45.6V45.4H40.8H39.2H39V45.6V51.8H36.2V34.4V34.2H36H34.4H34.2V34.4V51.8H30.4C30.1146 51.8 29.8611 51.896 29.6786 52.0786C29.496 52.2612 29.4 52.5146 29.4 52.8V56.6H28C26.5295 56.6 25.4 57.7296 25.4 59.2V61.4H16H15.8V61.6V63.2V63.4H16H26.4H53.6H64H64.2V63.2V61.6V61.4H64ZM42.4 56.6H31.4V53.8H48.6V57.6C48.6 57.8855 48.696 58.1389 48.8786 58.3214C49.0611 58.504 49.3146 58.6 49.6 58.6H52C52.1945 58.6 52.3411 58.664 52.4386 58.7614C52.536 58.8589 52.6 59.0055 52.6 59.2V61.4H27.4V59.2C27.4 59.0055 27.464 58.8589 27.5614 58.7614C27.6589 58.664 27.8054 58.6 28 58.6H30.4H42.4H42.6V58.4V56.8V56.6H42.4Z" fill="#4DC0B3" stroke="#4DC0B3" stroke-width="0.4"/>
<path d="M18.4986 24.7014L18.64 24.8429L18.7814 24.7014L19.9014 23.5814L20.0428 23.44L19.9014 23.2986L19.2028 22.6H32.8H33V22.4V20.8V20.6H32.8H19.2028L19.9014 19.9014L20.0428 19.76L19.9014 19.6186L18.7814 18.4986L18.64 18.3572L18.4986 18.4986L16.0986 20.8986C15.7005 21.2967 15.7005 21.9033 16.0986 22.3014L18.4986 24.7014Z" fill="#4DC0B3" stroke="#4DC0B3" stroke-width="0.4"/>
<path d="M18.4986 41.5015L18.64 41.6429L18.7814 41.5015L19.9014 40.3815L20.0428 40.2401L19.9014 40.0986L19.2028 39.4001H28H28.2V39.2001V37.6001V37.4001H28H19.2028L19.9014 36.7015L20.0428 36.5601L19.9014 36.4186L18.7814 35.2986L18.64 35.1572L18.4986 35.2986L16.0986 37.6986C15.7005 38.0967 15.7005 38.7034 16.0986 39.1015L18.4986 41.5015Z" fill="#4DC0B3" stroke="#4DC0B3" stroke-width="0.4"/>
<path d="M60.0986 31.2986L59.9572 31.44L60.0986 31.5814L61.2186 32.7014L61.36 32.8429L61.5014 32.7014L63.9014 30.3014C64.2995 29.9033 64.2995 29.2967 63.9014 28.8986L61.5014 26.4986L61.36 26.3572L61.2186 26.4986L60.0986 27.6186L59.9572 27.76L60.0986 27.9014L60.7972 28.6H52H51.8V28.8V30.4V30.6H52H60.7972L60.0986 31.2986Z" fill="#4DC0B3" stroke="#4DC0B3" stroke-width="0.4"/>
<path d="M61.5012 45.6987L61.3598 45.5572L61.2184 45.6987L60.0984 46.8187L59.957 46.9601L60.0984 47.1015L60.797 47.8001H48.7998H48.5998V48.0001V49.6001V49.8001H48.7998H60.797L60.0984 50.4987L59.957 50.6401L60.0984 50.7815L61.2184 51.9015L61.3598 52.0429L61.5012 51.9015L63.9012 49.5015C64.2993 49.1034 64.2993 48.4968 63.9012 48.0987L61.5012 45.6987Z" fill="#4DC0B3" stroke="#4DC0B3" stroke-width="0.4"/>
<path d="M53.8 37.6001V37.4001H53.6H52H51.8V37.6001V39.2001V39.4001H52H53.6H53.8V39.2001V37.6001Z" fill="#4DC0B3" stroke="#4DC0B3" stroke-width="0.4"/>
<path d="M57.0002 37.6001V37.4001H56.8002H55.2002H55.0002V37.6001V39.2001V39.4001H55.2002H56.8002H57.0002V39.2001V37.6001Z" fill="#4DC0B3" stroke="#4DC0B3" stroke-width="0.4"/>
<path d="M60.2004 37.6001V37.4001H60.0004H58.4004H58.2004V37.6001V39.2001V39.4001H58.4004H60.0004H60.2004V39.2001V37.6001Z" fill="#4DC0B3" stroke="#4DC0B3" stroke-width="0.4"/>
<path d="M63.3996 37.6001V37.4001H63.1996H61.5996H61.3996V37.6001V39.2001V39.4001H61.5996H63.1996H63.3996V39.2001V37.6001Z" fill="#4DC0B3" stroke="#4DC0B3" stroke-width="0.4"/>
<path d="M18.5998 45.6001V45.4001H18.3998H16.7998H16.5998V45.6001V47.2001V47.4001H16.7998H18.3998H18.5998V47.2001V45.6001Z" fill="#4DC0B3" stroke="#4DC0B3" stroke-width="0.4"/>
<path d="M21.8 45.6001V45.4001H21.6H20H19.8V45.6001V47.2001V47.4001H20H21.6H21.8V47.2001V45.6001Z" fill="#4DC0B3" stroke="#4DC0B3" stroke-width="0.4"/>
<path d="M25.0002 45.6001V45.4001H24.8002H23.2002H23.0002V45.6001V47.2001V47.4001H23.2002H24.8002H25.0002V47.2001V45.6001Z" fill="#4DC0B3" stroke="#4DC0B3" stroke-width="0.4"/>
<path d="M28.2004 45.6001V45.4001H28.0004H26.4004H26.2004V45.6001V47.2001V47.4001H26.4004H28.0004H28.2004V47.2001V45.6001Z" fill="#4DC0B3" stroke="#4DC0B3" stroke-width="0.4"/>
<path d="M18.5998 28V27.8H18.3998H16.7998H16.5998V28V29.6V29.8H16.7998H18.3998H18.5998V29.6V28Z" fill="#4DC0B3" stroke="#4DC0B3" stroke-width="0.4"/>
<path d="M21.8 28V27.8H21.6H20H19.8V28V29.6V29.8H20H21.6H21.8V29.6V28Z" fill="#4DC0B3" stroke="#4DC0B3" stroke-width="0.4"/>
<path d="M25.0002 28V27.8H24.8002H23.2002H23.0002V28V29.6V29.8H23.2002H24.8002H25.0002V29.6V28Z" fill="#4DC0B3" stroke="#4DC0B3" stroke-width="0.4"/>
<path d="M28.2004 28V27.8H28.0004H26.4004H26.2004V28V29.6V29.8H26.4004H28.0004H28.2004V29.6V28Z" fill="#4DC0B3" stroke="#4DC0B3" stroke-width="0.4"/>
</g>
<defs>
<clipPath id="clip0_173_867">
<rect width="48" height="48" fill="white" transform="translate(16 16)"/>
</clipPath>
</defs>
</svg>
