<svg width="80" height="80" viewBox="0 0 80 80" fill="none" xmlns="http://www.w3.org/2000/svg">
<rect width="80" height="80" rx="10" fill="#FFCED7"/>
<path fill-rule="evenodd" clip-rule="evenodd" d="M38.0271 25.5993C38.3715 25.1496 38.9967 24.5 40.0001 24.5C41.0035 24.5 41.6287 25.1496 41.9731 25.5993C42.3017 26.0284 42.6327 26.6225 42.9721 27.2315L43.2151 27.6674C43.2607 27.7492 43.2965 27.8135 43.3279 27.8686C43.3825 27.8814 43.4461 27.8958 43.5255 27.9138L44.0013 28.0214C44.6569 28.1696 45.3085 28.3168 45.8085 28.5139C46.3609 28.7315 47.1095 29.1554 47.3979 30.0832C47.6815 30.9947 47.3237 31.7667 47.0113 32.2629C46.7223 32.7222 46.2829 33.2357 45.8331 33.7615L45.5117 34.1372C45.4427 34.2179 45.3907 34.2787 45.3471 34.3313C45.3529 34.404 45.3611 34.4887 45.3721 34.6019L45.4205 35.1008C45.4889 35.8046 45.5549 36.4848 45.5307 37.029C45.5053 37.5994 45.3683 38.463 44.5939 39.0508C43.7951 39.6572 42.9129 39.5252 42.3535 39.3648C41.8381 39.2172 41.2289 38.9364 40.6155 38.6538L40.1699 38.4486C40.1029 38.4178 40.0481 38.3926 40.0001 38.3708C39.9521 38.3926 39.8973 38.4178 39.8303 38.4486L39.3847 38.6538C38.7713 38.9364 38.1621 39.2172 37.6467 39.3648C37.0873 39.5252 36.2051 39.6572 35.4062 39.0508C34.6318 38.463 34.4949 37.5994 34.4695 37.029C34.4453 36.4848 34.5113 35.8047 34.5797 35.1008L34.628 34.6019C34.639 34.4887 34.6472 34.404 34.6532 34.3313C34.6094 34.2787 34.5574 34.2179 34.4884 34.1372L34.1671 33.7615C33.7173 33.2357 33.2779 32.7222 32.9888 32.2629C32.6764 31.7667 32.3187 30.9947 32.6022 30.0832C32.8907 29.1554 33.6393 28.7315 34.1916 28.5139C34.6918 28.3168 35.3433 28.1696 35.9989 28.0214L36.4747 27.9138C36.5541 27.8958 36.6177 27.8814 36.6723 27.8686C36.7037 27.8135 36.7395 27.7492 36.7851 27.6674L37.0281 27.2315C37.3675 26.6225 37.6985 26.0284 38.0271 25.5993ZM40.0001 28.069C39.8839 28.2703 39.7545 28.5021 39.6021 28.7754L39.4055 29.1281L39.3609 29.2093C39.2039 29.4965 38.9437 29.9722 38.5101 30.3014C38.0673 30.6375 37.5347 30.7532 37.2233 30.8208L37.1367 30.8398L36.7549 30.9262C36.4045 31.0055 36.1191 31.0702 35.8751 31.1315C36.0339 31.3269 36.2399 31.5695 36.5081 31.8831L36.7685 32.1874L36.8283 32.2568C37.0443 32.5055 37.3927 32.9069 37.5539 33.4252C37.7133 33.9374 37.6583 34.4649 37.6237 34.7976L37.6141 34.8912L37.5747 35.2973C37.5383 35.6738 37.5099 35.9744 37.4911 36.2188C37.6995 36.127 37.9365 36.0178 38.2181 35.8882L38.5757 35.7236L38.6563 35.6858C38.9433 35.5504 39.4427 35.3149 40.0001 35.3149C40.5575 35.3149 41.0569 35.5504 41.3439 35.6858L41.4245 35.7236L41.7821 35.8882C42.0637 36.0178 42.3007 36.127 42.5091 36.2188C42.4903 35.9744 42.4619 35.6738 42.4255 35.2973L42.3861 34.8912L42.3765 34.7976C42.3419 34.4649 42.2869 33.9374 42.4463 33.4252C42.6075 32.9069 42.9559 32.5055 43.1719 32.2568L43.2317 32.1874L43.4921 31.8831C43.7603 31.5695 43.9663 31.3269 44.1251 31.1315C43.8811 31.0702 43.5957 31.0055 43.2453 30.9262L42.8635 30.8398L42.7769 30.8208C42.4655 30.7532 41.9329 30.6375 41.4901 30.3014C41.0565 29.9722 40.7963 29.4965 40.6393 29.2093L40.5947 29.1281L40.3981 28.7754C40.2457 28.5021 40.1163 28.2703 40.0001 28.069ZM37.4787 37.023C37.4787 37.023 37.4783 37.0212 37.4775 37.0168L37.4787 37.023ZM42.5215 37.023L42.5227 37.0168C42.5219 37.0212 42.5215 37.023 42.5215 37.023Z" fill="#EF4768"/>
<path fill-rule="evenodd" clip-rule="evenodd" d="M30.9968 19.2144C33.3226 18.822 36.3448 18.5 40.0004 18.5C43.6558 18.5 46.678 18.822 49.0038 19.2144L49.2736 19.2597C51.294 19.5979 52.9732 19.879 54.2864 21.4962C55.1286 22.5334 55.4002 23.6543 55.4628 24.9064L56.4462 25.2342C57.3724 25.5429 58.1842 25.8135 58.8284 26.1131C59.5246 26.437 60.1628 26.8543 60.6506 27.5311C61.1384 28.2079 61.3324 28.9452 61.4196 29.7082C61.5 30.414 61.5 31.2698 61.5 32.2461V32.5366C61.5 33.3401 61.5 34.05 61.4406 34.6436C61.3764 35.287 61.234 35.9124 60.8782 36.5168C60.5226 37.1214 60.045 37.5496 59.5138 37.9182C59.0236 38.2584 58.4032 38.603 57.7006 38.9932L52.4194 41.9274C51.3406 44.05 49.8584 45.9426 47.8202 47.3096C46.0708 48.4828 43.9762 49.2256 41.5 49.4374V53.5H44.3604C46.0288 53.5 47.4652 54.6776 47.7924 56.3136L48.2298 58.5H52C52.8284 58.5 53.5 59.1716 53.5 60C53.5 60.8284 52.8284 61.5 52 61.5H28C27.1716 61.5 26.5 60.8284 26.5 60C26.5 59.1716 27.1716 58.5 28 58.5H31.7703L32.2076 56.3136C32.5348 54.6776 33.9712 53.5 35.6396 53.5H38.5V49.4374C36.024 49.2254 33.9296 48.4828 32.1803 47.3096C30.1423 45.9426 28.6604 44.0504 27.5816 41.928L22.2992 38.9932C21.5967 38.603 20.9763 38.2584 20.4861 37.9182C19.955 37.5496 19.4773 37.1214 19.1217 36.5168C18.766 35.9124 18.6236 35.287 18.5593 34.6436C18.5 34.0499 18.5 33.3402 18.5 32.5365L18.5 32.2461C18.4999 31.2698 18.4998 30.414 18.5804 29.7082C18.6675 28.9452 18.8615 28.2079 19.3493 27.5311C19.8371 26.8543 20.4752 26.437 21.1715 26.1131C21.8156 25.8135 22.6275 25.5429 23.5537 25.2342L24.5378 24.9062C24.6005 23.6541 24.8722 22.5333 25.7142 21.4962C27.0273 19.879 28.7067 19.5979 30.7271 19.2597L30.9968 19.2144ZM34.8297 58.5H45.1704L44.8506 56.902C44.804 56.6682 44.5988 56.5 44.3604 56.5H35.6396C35.4013 56.5 35.1961 56.6682 35.1493 56.902L34.8297 58.5ZM24.6042 28.0464L24.577 28.0554C23.5542 28.3964 22.9072 28.6144 22.4369 28.8332C22.0016 29.0357 21.8615 29.1763 21.7831 29.2852C21.7046 29.3941 21.6155 29.5714 21.5611 30.0484C21.5022 30.5638 21.5 31.2465 21.5 32.3246V32.4697C21.5 33.36 21.5018 33.9185 21.5444 34.3453C21.5837 34.7387 21.6486 34.8957 21.7073 34.9955C21.766 35.0952 21.8718 35.2281 22.1966 35.4536C22.5489 35.6981 23.0363 35.9708 23.8146 36.4032L25.946 37.5874C25.0908 34.4475 24.7473 31.087 24.6042 28.0464ZM54.0548 37.587C54.9098 34.4473 55.2532 31.087 55.3964 28.0466L55.423 28.0554C56.4458 28.3964 57.0926 28.6144 57.563 28.8332C57.9984 29.0357 58.1384 29.1763 58.2168 29.2852C58.2954 29.3941 58.3844 29.5714 58.4388 30.0484C58.4976 30.5638 58.5 31.2465 58.5 32.3246V32.4697C58.4998 33.36 58.4982 33.9185 58.4554 34.3453C58.4162 34.7387 58.3514 34.8957 58.2926 34.9955C58.234 35.0952 58.1282 35.2281 57.8034 35.4536C57.451 35.6981 56.9636 35.9708 56.1854 36.4032L54.0548 37.587ZM40.0004 21.5C36.5216 21.5 33.6664 21.8064 31.4959 22.1726C29.0821 22.5798 28.575 22.7322 28.0432 23.3872C27.5191 24.0326 27.4694 24.6431 27.577 27.3534C27.7563 31.8707 28.3522 36.7454 30.1977 40.4528C31.1086 42.2828 32.2997 43.7774 33.8514 44.818C35.3931 45.8522 37.3822 46.5 40.0004 46.5C42.6184 46.5 44.6074 45.8522 46.1492 44.818C47.701 43.7774 48.892 42.2828 49.803 40.4528C51.6484 36.7454 52.2444 31.8707 52.4236 27.3534C52.5312 24.6431 52.4814 24.0326 51.9574 23.3872C51.4256 22.7322 50.9186 22.5798 48.5048 22.1726C46.3342 21.8064 43.479 21.5 40.0004 21.5Z" fill="#EF4768"/>
</svg>
