<svg width="80" height="80" viewBox="0 0 80 80" fill="none" xmlns="http://www.w3.org/2000/svg">
<rect width="80" height="80" rx="10" fill="#FFCED7"/>
<g clip-path="url(#clip0_173_881)">
<path d="M22.4711 40C22.4711 49.6658 30.3346 57.5293 40.0004 57.5293C49.6662 57.5293 57.5297 49.6658 57.5297 40C57.5297 30.3342 49.6662 22.4707 40.0004 22.4707C30.3346 22.4707 22.4711 30.3342 22.4711 40ZM24.4262 40C24.4262 31.4124 31.4127 24.4259 40.0004 24.4259C48.5881 24.4259 55.5745 31.4123 55.5745 40C55.5745 48.5877 48.5881 55.5741 40.0004 55.5741C31.4127 55.5741 24.4262 48.5876 24.4262 40Z" fill="#EF4768" stroke="#EF4768" stroke-width="0.3"/>
<path d="M32.4018 40C32.4018 44.1897 35.8104 47.5983 40 47.5983C44.1897 47.5983 47.5983 44.1897 47.5983 40C47.5983 35.8104 44.1897 32.4018 40 32.4018C35.8104 32.4018 32.4018 35.8104 32.4018 40ZM34.3569 40C34.3569 36.8885 36.8885 34.3569 40 34.3569C43.1115 34.3569 45.6431 36.8885 45.6431 40C45.6431 43.1115 43.1115 45.6431 40 45.6431C36.8885 45.6431 34.3569 43.1115 34.3569 40Z" fill="#EF4768" stroke="#EF4768" stroke-width="0.3"/>
<path d="M32.4018 40C32.4018 44.1897 35.8104 47.5983 40 47.5983C44.1897 47.5983 47.5983 44.1897 47.5983 40C47.5983 35.8104 44.1897 32.4018 40 32.4018C35.8104 32.4018 32.4018 35.8104 32.4018 40ZM34.3569 40C34.3569 36.8885 36.8885 34.3569 40 34.3569C43.1115 34.3569 45.6431 36.8885 45.6431 40C45.6431 43.1115 43.1115 45.6431 40 45.6431C36.8885 45.6431 34.3569 43.1115 34.3569 40Z" fill="#EF4768" stroke="#EF4768" stroke-width="0.3"/>
<path d="M19.1605 40C19.1605 51.4913 28.509 60.8397 40.0002 60.8397C51.4914 60.8397 60.8399 51.4913 60.8399 40C60.8399 28.5087 51.4915 19.1603 40.0002 19.1603C28.509 19.1603 19.1605 28.5087 19.1605 40ZM21.1158 40C21.1158 29.5872 29.5875 21.1156 40.0002 21.1156C50.413 21.1156 58.8847 29.5872 58.8847 40C58.8847 50.4127 50.413 58.8844 40.0002 58.8844C29.5875 58.8844 21.1158 50.4127 21.1158 40Z" fill="#EF4768" stroke="#EF4768" stroke-width="0.3"/>
<path d="M39.0229 25.931C39.0229 26.4709 39.4606 26.9087 40.0005 26.9087C40.5404 26.9087 40.9781 26.4709 40.9781 25.931V16.8276C40.9781 16.2878 40.5404 15.85 40.0005 15.85C39.4606 15.85 39.0229 16.2878 39.0229 16.8276V25.931Z" fill="#EF4768" stroke="#EF4768" stroke-width="0.3"/>
<path d="M39.0229 63.1724C39.0229 63.7122 39.4606 64.15 40.0005 64.15C40.5404 64.15 40.9781 63.7122 40.9781 63.1724V54.069C40.9781 53.5291 40.5404 53.0913 40.0005 53.0913C39.4606 53.0913 39.0229 53.5291 39.0229 54.069V63.1724Z" fill="#EF4768" stroke="#EF4768" stroke-width="0.3"/>
<path d="M54.0688 39.0224C53.529 39.0224 53.0912 39.4601 53.0912 40C53.0912 40.5399 53.529 40.9776 54.0688 40.9776H63.1722C63.7121 40.9776 64.1499 40.5399 64.1499 40C64.1499 39.4601 63.7121 39.0224 63.1722 39.0224H54.0688Z" fill="#EF4768" stroke="#EF4768" stroke-width="0.3"/>
<path d="M30.897 39.0224C30.3571 39.0224 29.9193 39.4601 29.9193 40C29.9193 40.5399 30.3571 40.9776 30.897 40.9776H49.1039C49.6437 40.9776 50.0815 40.5399 50.0815 40C50.0815 39.4601 49.6437 39.0224 49.1039 39.0224H30.897Z" fill="#EF4768" stroke="#EF4768" stroke-width="0.3"/>
<path d="M16.8276 39.0224C16.2878 39.0224 15.85 39.4601 15.85 40C15.85 40.5399 16.2878 40.9776 16.8276 40.9776H25.931C26.4709 40.9776 26.9087 40.5399 26.9087 40C26.9087 39.4601 26.4709 39.0224 25.931 39.0224H16.8276Z" fill="#EF4768" stroke="#EF4768" stroke-width="0.3"/>
<path d="M40.9781 30.8966C40.9781 30.3567 40.5404 29.919 40.0005 29.919C39.4606 29.919 39.0229 30.3567 39.0229 30.8966V49.1035C39.0229 49.6434 39.4606 50.0811 40.0005 50.0811C40.5404 50.0811 40.9781 49.6434 40.9781 49.1035V30.8966Z" fill="#EF4768" stroke="#EF4768" stroke-width="0.3"/>
</g>
<defs>
<clipPath id="clip0_173_881">
<rect width="48" height="48" fill="white" transform="translate(16 16)"/>
</clipPath>
</defs>
</svg>
