<svg width="80" height="80" viewBox="0 0 80 80" fill="none" xmlns="http://www.w3.org/2000/svg">
<rect width="80" height="80" rx="10" fill="#DAFFFB"/>
<g clip-path="url(#clip0_174_897)">
<path d="M42.8116 47.8314V46.8851C45.1036 46.3543 46.8194 44.2742 46.8194 41.7944C46.8194 39.3146 45.1036 37.2347 42.8116 36.7037V31.1395C43.9979 31.5596 45.0809 32.4762 45.4824 32.8926C45.9397 33.3702 46.6978 33.3876 47.1765 32.9308C47.6557 32.4735 47.6733 31.7146 47.2162 31.2354C47.1247 31.1393 45.2236 29.1755 42.8116 28.651V27.7085C42.8116 27.0461 42.2748 26.5094 41.6124 26.5094C40.95 26.5094 40.4133 27.0461 40.4133 27.7085V28.6777C38.17 29.2444 36.5026 31.3011 36.5026 33.7456C36.5026 36.1902 38.17 38.2471 40.4133 38.8139V44.2851C39.2735 43.7354 38.1807 42.6552 37.793 42.1971C37.3669 41.69 36.6103 41.6244 36.1037 42.0504C35.5965 42.4763 35.5308 43.2327 35.9569 43.7397C36.1969 44.0254 38.0862 46.2009 40.4133 46.8403V47.8313C40.4133 48.4937 40.95 49.0304 41.6124 49.0304C42.2747 49.0306 42.8116 48.4937 42.8116 47.8314ZM44.4211 41.7944C44.4211 42.9315 43.7598 43.9114 42.8116 44.3589V39.2299C43.7598 39.6774 44.4211 40.6573 44.4211 41.7944ZM38.9008 33.7457C38.9008 32.648 39.5172 31.6967 40.4133 31.2293V36.2626C39.5172 35.7953 38.9008 34.8438 38.9008 33.7457Z" fill="#4DC0B3"/>
<path d="M39.3292 59.4191C39.3711 59.4234 39.4125 59.4256 39.4541 59.4256C39.7491 59.4256 40.0354 59.3167 40.2567 59.1174C40.5091 58.89 40.6532 58.5663 40.6532 58.2265V51.3072C40.6532 50.7174 40.2242 50.2152 39.6416 50.123C34.2954 49.2761 30.0237 44.9351 29.2534 39.566C29.1688 38.9758 28.6629 38.5374 28.0664 38.5374H21.1748C20.8371 38.5374 20.5151 38.6798 20.2877 38.9295C20.0605 39.1794 19.9491 39.5133 19.9809 39.8495C20.9535 50.1172 29.0906 58.3474 39.3292 59.4191ZM27.0636 40.9354C27.6566 43.6953 29.0102 46.2031 31.0151 48.2386C33.0212 50.275 35.5074 51.6652 38.2551 52.2958V56.8488C30.2088 55.4353 23.8661 49.0142 22.5384 40.9356L27.0636 40.9354Z" fill="#4DC0B3"/>
<path d="M21.8029 51.3633C21.4633 50.7948 20.7271 50.6095 20.1587 50.9487C19.59 51.2882 19.4045 52.0246 19.7441 52.593C19.7735 52.6424 19.8031 52.6915 19.8331 52.7406C20.0594 53.1104 20.4535 53.3142 20.8572 53.3142C21.0705 53.3142 21.2866 53.2575 21.4817 53.1379C22.0467 52.7922 22.2245 52.0542 21.879 51.4891L21.8029 51.3633Z" fill="#4DC0B3"/>
<path d="M17.9954 44.6074C18.6541 44.5394 19.1329 43.9503 19.065 43.2915L19.0503 43.1432C18.9882 42.4838 18.4045 42.0007 17.744 42.0617C17.0847 42.1238 16.6005 42.7086 16.6626 43.368L16.6794 43.5379C16.743 44.1548 17.2636 44.6139 17.8707 44.6139C17.9117 44.6139 17.9535 44.6117 17.9954 44.6074Z" fill="#4DC0B3"/>
<path d="M20.015 47.5365L19.9665 47.3946C19.7549 46.7673 19.0744 46.4302 18.4468 46.6418C17.8193 46.8535 17.4824 47.534 17.6941 48.1615L17.7491 48.3222C17.921 48.818 18.3853 49.1288 18.882 49.1288C19.0122 49.1288 19.1449 49.1074 19.2749 49.0623C19.9007 48.8455 20.2319 48.1622 20.015 47.5365Z" fill="#4DC0B3"/>
<path d="M40.1652 61.6017L40.0956 61.6016C39.4332 61.6016 38.8965 62.1383 38.8965 62.8007C38.8965 63.4631 39.4332 63.9998 40.0956 63.9998L40.1463 64C40.1495 64 40.1527 64 40.1559 64C40.8138 64 41.3497 63.4693 41.3549 62.8103C41.3601 62.1479 40.8274 61.6068 40.1652 61.6017Z" fill="#4DC0B3"/>
<path d="M35.8751 61.203L35.7229 61.1732C35.0732 61.0436 34.4424 61.4674 34.314 62.117C34.1855 62.7666 34.6082 63.3975 35.2578 63.5258L35.4195 63.5573C35.4964 63.5723 35.573 63.5793 35.6486 63.5793C36.2115 63.5793 36.7137 63.1811 36.8245 62.6079C36.9504 61.9576 36.5252 61.3286 35.8751 61.203Z" fill="#4DC0B3"/>
<path d="M31.6803 59.9434L31.5402 59.8841C30.9312 59.6248 30.2266 59.9074 29.9667 60.5164C29.7067 61.1256 29.9898 61.83 30.599 62.09L30.7534 62.1552C30.9049 62.2187 31.0619 62.2488 31.2165 62.2488C31.6852 62.2488 32.1304 61.9722 32.3229 61.5128C32.579 60.9019 32.2912 60.1992 31.6803 59.9434Z" fill="#4DC0B3"/>
<path d="M24.4287 54.8662C23.9783 54.3808 23.2195 54.3525 22.7341 54.8029C22.2487 55.2533 22.2202 56.0121 22.6708 56.4975L22.783 56.6181C23.0191 56.8703 23.3386 56.9979 23.659 56.9979C23.9525 56.9979 24.2467 56.8908 24.4779 56.6745C24.9616 56.222 24.9868 55.4632 24.5344 54.9796L24.4287 54.8662Z" fill="#4DC0B3"/>
<path d="M27.8433 57.838L27.721 57.7524C27.1798 57.3703 26.4317 57.4993 26.0497 58.0404C25.6678 58.5814 25.7966 59.3297 26.3377 59.7117L26.4774 59.8093C26.6858 59.9536 26.9237 60.0229 27.1593 60.0229C27.5394 60.0229 27.9133 59.8426 28.1461 59.5065C28.523 58.9621 28.3876 58.2151 27.8433 57.838Z" fill="#4DC0B3"/>
<path d="M41.6122 16C36.0932 16 30.8319 18.0754 26.7974 21.8442C22.7844 25.5928 20.3502 30.6659 19.9428 36.1291C19.918 36.4617 20.0328 36.7896 20.2598 37.0341C20.4867 37.2784 20.8052 37.4175 21.1387 37.4175H28.0148C28.6251 37.4175 29.1381 36.9589 29.2064 36.3525C29.9181 30.0266 35.2516 25.2563 41.6124 25.2563C48.4982 25.2563 54.1002 30.8699 54.1002 37.7702C54.1002 44.0405 49.4261 49.3736 43.2275 50.1752C42.6297 50.2526 42.1822 50.7617 42.1822 51.3646V58.2637C42.1822 58.5996 42.3231 58.9199 42.5704 59.1469C42.7927 59.3508 43.0822 59.4628 43.3813 59.4628C43.4152 59.4628 43.4495 59.4614 43.4837 59.4585C48.8868 58.9961 53.8951 56.5349 57.5862 52.5284C61.2988 48.4984 63.3434 43.2572 63.3434 37.7702C63.3433 25.766 53.5947 16 41.6122 16ZM44.5803 56.9119V52.3802C51.4446 50.9882 56.4983 44.8853 56.4983 37.7699C56.4983 29.5472 49.8203 22.8577 41.6122 22.8577C34.3908 22.8577 28.2802 28.0148 26.9813 35.0189H22.474C23.8169 25.5997 31.985 18.3982 41.6122 18.3982C52.2725 18.3982 60.945 27.0884 60.945 37.7699C60.945 47.3023 53.8561 55.4677 44.5803 56.9119Z" fill="#4DC0B3"/>
</g>
<defs>
<clipPath id="clip0_174_897">
<rect width="48" height="48" fill="white" transform="translate(16 16)"/>
</clipPath>
</defs>
</svg>
