<svg width="80" height="80" viewBox="0 0 80 80" fill="none" xmlns="http://www.w3.org/2000/svg">
<rect width="80" height="80" rx="10" fill="#FFCED7"/>
<g clip-path="url(#clip0_173_893)">
<path d="M32.7553 26.9669L32.7553 26.9669C34.8821 25.4647 37.3875 24.6706 39.9994 24.6706C46.9306 24.6706 52.5691 30.3092 52.5691 37.2403C52.5691 41.9916 49.881 46.33 45.6698 48.4604V49.9027H47.096C47.6148 49.9027 48.0353 50.3232 48.0353 50.8419V52.8132C48.0353 53.3319 47.6148 53.7524 47.096 53.7524C46.5773 53.7524 46.1568 53.3319 46.1568 52.8132V51.7811H33.8423V53.8451H44.3363C44.8551 53.8451 45.2755 54.2656 45.2755 54.7844C45.2755 55.3031 44.8551 55.7236 44.3363 55.7236H33.8423V57.8862H46.1567V56.7556C46.1567 56.2369 46.5772 55.8164 47.0959 55.8164C47.6147 55.8164 48.0352 56.2369 48.0352 56.7556V58.8254C48.0352 61.7892 45.6244 64.2 42.6606 64.2H37.3383C34.3745 64.2 31.9637 61.7892 31.9637 58.8254V50.8419C31.9637 50.3232 32.3842 49.9027 32.9029 49.9027H34.3292V48.4604C30.118 46.3301 27.4299 41.9918 27.4299 37.2403C27.4299 34.3797 28.4166 31.5803 30.2086 29.3572L30.2086 29.3572C30.5342 28.9535 31.1254 28.8901 31.5292 29.2154L31.5292 29.2155C31.933 29.5409 31.9964 30.1322 31.671 30.536L31.671 30.5361C30.125 32.4538 29.3082 34.7712 29.3082 37.2403C29.3082 41.4569 31.7979 45.2918 35.6508 47.0096C35.9895 47.1606 36.2076 47.4967 36.2076 47.8675V49.9027H36.6889V40.2837H35.5671C34.5583 40.2837 33.6714 39.674 33.3099 38.7322L33.3099 38.7322C32.9486 37.7904 33.2001 36.744 33.9498 36.0691L34.5323 35.5447L34.5323 35.5447C35.2513 34.8976 36.2498 34.7396 37.1333 35.1332L37.1333 35.1332C38.0168 35.5267 38.5674 36.3744 38.5674 37.3417V38.4053H41.4315V37.3417C41.4315 36.3744 41.982 35.5267 42.8656 35.1332L42.8656 35.1332C43.7491 34.7397 44.7477 34.8976 45.4666 35.5447L46.0491 36.0691C46.0491 36.0691 46.0491 36.0691 46.0491 36.0691C46.799 36.7439 47.0505 37.7904 46.689 38.7322C46.689 38.7322 46.689 38.7322 46.689 38.7322L46.5023 38.6606C46.1706 39.525 45.3578 40.0837 44.4319 40.0837L32.7553 26.9669ZM32.7553 26.9669C32.3316 27.2662 32.2308 27.8523 32.53 28.2759L32.5301 28.276C32.8295 28.6996 33.4154 28.8004 33.8391 28.5012L33.8391 28.5012C35.6472 27.2241 37.777 26.549 39.9995 26.549C45.8945 26.549 50.6907 31.3453 50.6907 37.2402C50.6907 41.4568 48.201 45.2917 44.3481 47.0095L44.348 47.0095C44.0094 47.1606 43.7913 47.4966 43.7913 47.8674V49.9026H43.3101V40.2837L32.7553 26.9669ZM36.689 37.3417V38.4053H35.5672C35.0828 38.4053 34.8454 37.7902 35.2065 37.4652L35.2065 37.4652L35.789 36.9409C36.13 36.634 36.689 36.8856 36.689 37.3417ZM43.3101 37.3416C43.3101 37.0192 43.5478 36.8857 43.6298 36.8491C43.7118 36.8126 43.9703 36.725 44.2099 36.9407L44.7925 37.465C45.0463 37.6935 44.9698 37.9689 44.9352 38.0592C44.9007 38.1492 44.7733 38.4051 44.4319 38.4051H43.3101V37.3416ZM33.9705 59.7647H46.0286C45.6172 61.2379 44.2627 62.3215 42.6607 62.3215H37.3384C35.7363 62.3215 34.3819 61.2379 33.9705 59.7647ZM38.5674 49.9027V40.2837H41.4316V49.9027H38.5674Z" fill="#EF4768" stroke="#EF4768" stroke-width="0.4"/>
<path d="M40 15.8C39.4812 15.8 39.0607 16.2205 39.0607 16.7392V20.8788C39.0607 21.3976 39.4812 21.8181 40 21.8181C40.5187 21.8181 40.9392 21.3976 40.9392 20.8788V16.7392C40.9392 16.2205 40.5187 15.8 40 15.8Z" fill="#EF4768" stroke="#EF4768" stroke-width="0.4"/>
<path d="M32.5346 22.6277L32.5346 22.6277C32.771 23.0373 32.6602 23.5728 32.2783 23.8535C31.8317 24.1819 31.1847 24.0466 30.9078 23.5669C30.9078 23.5669 30.9078 23.5669 30.9078 23.5669L28.838 19.9819L28.838 19.9819C28.5787 19.5327 28.7326 18.9583 29.1818 18.6989L32.5346 22.6277ZM32.5346 22.6277L30.4648 19.0427M32.5346 22.6277L30.4648 19.0427M30.4648 19.0427C30.2055 18.5935 29.631 18.4395 29.1818 18.6989L30.4648 19.0427Z" fill="#EF4768" stroke="#EF4768" stroke-width="0.4"/>
<path d="M22.5449 26.275L26.1298 28.3448C26.5394 28.5811 26.7111 29.1004 26.5208 29.5345C26.5208 29.5345 26.5208 29.5345 26.5208 29.5345L26.3376 29.4542C26.1633 29.852 25.6677 30.0161 25.2906 29.7983L22.5449 26.275ZM22.5449 26.275C22.5449 26.275 22.5449 26.275 22.5449 26.275M22.5449 26.275L22.5449 26.275M22.5449 26.275C22.0956 26.0156 21.5211 26.1695 21.2619 26.6187L22.5449 26.275ZM21.6056 27.9017L25.1906 29.9715L21.2618 26.6188C21.0026 27.068 21.1564 27.6424 21.6056 27.9017Z" fill="#EF4768" stroke="#EF4768" stroke-width="0.4"/>
<path d="M23.4413 36.4981H19.3017C18.783 36.4981 18.3625 36.9186 18.3625 37.4373C18.3625 37.9561 18.783 38.3766 19.3017 38.3766H23.4413C23.9601 38.3766 24.3806 37.9561 24.3806 37.4373C24.3806 36.9187 23.96 36.4981 23.4413 36.4981Z" fill="#EF4768" stroke="#EF4768" stroke-width="0.4"/>
<path d="M25.1903 44.9032L25.1903 44.9032L21.6053 46.973C21.6053 46.973 21.6053 46.973 21.6053 46.973C21.1957 47.2094 21.024 47.7286 21.2143 48.1628L21.2143 48.1628C21.4363 48.6692 22.0637 48.8776 22.5445 48.5999C22.5445 48.5999 22.5445 48.5998 22.5446 48.5998L26.1295 46.5301C26.5787 46.2707 26.7326 45.6962 26.4733 45.2471C26.214 44.7979 25.6395 44.6439 25.1903 44.9032Z" fill="#EF4768" stroke="#EF4768" stroke-width="0.4"/>
<path d="M58.7854 48.1628C58.9759 47.7287 58.8041 47.2095 58.3945 46.9731C58.3945 46.9731 58.3945 46.9731 58.3945 46.9731L54.8095 44.9033L58.6023 48.0825M58.7854 48.1628L58.6023 48.0825M58.7854 48.1628C58.7855 48.1628 58.7855 48.1628 58.7855 48.1627L58.6023 48.0825M58.7854 48.1628C58.5635 48.6693 57.936 48.8775 57.4553 48.5998M58.6023 48.0825C58.428 48.4803 57.9324 48.6444 57.5553 48.4266M57.4553 48.5998L57.4553 48.5998L57.5553 48.4266M57.4553 48.5998L57.5553 48.4266M57.4553 48.5998L53.8703 46.53C53.4211 46.2707 53.2672 45.6962 53.5265 45.247C53.7858 44.7979 54.3602 44.6438 54.8095 44.9033L57.5553 48.4266" fill="#EF4768" stroke="#EF4768" stroke-width="0.4"/>
<path d="M60.6982 36.4981H56.5586C56.0398 36.4981 55.6193 36.9186 55.6193 37.4373C55.6193 37.9561 56.0398 38.3766 56.5586 38.3766H60.6982C61.2169 38.3766 61.6374 37.9561 61.6374 37.4373C61.6374 36.9187 61.2169 36.4981 60.6982 36.4981Z" fill="#EF4768" stroke="#EF4768" stroke-width="0.4"/>
<path d="M57.4553 26.2749L57.4553 26.2749C57.9045 26.0156 58.4789 26.1695 58.7383 26.6187L57.4553 26.2749ZM57.4553 26.2749L53.8703 28.3447C53.4211 28.6041 53.2672 29.1786 53.5265 29.6277C53.7006 29.9292 54.0166 30.0975 54.3406 30.0975C54.5001 30.0975 54.6619 30.0568 54.8095 29.9715C54.8095 29.9715 54.8095 29.9715 54.8096 29.9715L58.3945 27.9017L58.3945 27.9017M57.4553 26.2749L58.3945 27.9017M58.3945 27.9017C58.8438 27.6423 58.9977 27.0679 58.7383 26.6187L58.3945 27.9017Z" fill="#EF4768" stroke="#EF4768" stroke-width="0.4"/>
<path d="M47.466 22.6277L47.466 22.6277C47.2067 23.0769 47.3605 23.6513 47.8097 23.9107C48.2547 24.1676 48.8363 24.0111 49.0927 23.5669L51.1625 19.9819L51.1625 19.9819C51.4218 19.5327 51.268 18.9583 50.8188 18.6989C50.3696 18.4395 49.7951 18.5935 49.5358 19.0427L47.466 22.6277Z" fill="#EF4768" stroke="#EF4768" stroke-width="0.4"/>
</g>
<defs>
<clipPath id="clip0_173_893">
<rect width="48" height="48" fill="white" transform="translate(16 16)"/>
</clipPath>
</defs>
</svg>
